<svg width="16" height="16" viewBox="0 0 16 16" fill="none" xmlns="http://www.w3.org/2000/svg">
<path d="M7.24404 7.04495H8.74404V12.16H7.24404V7.04495ZM8.00004 6.09656C7.72804 6.09656 7.50004 6.02112 7.31604 5.87024C7.13204 5.71217 7.04004 5.51818 7.04004 5.28827C7.04004 5.05836 7.13204 4.86796 7.31604 4.71708C7.50004 4.55901 7.72804 4.47998 8.00004 4.47998C8.27204 4.47998 8.50004 4.55542 8.68404 4.7063C8.86804 4.85 8.96004 5.03321 8.96004 5.25594C8.96004 5.49304 8.86804 5.69421 8.68404 5.85946C8.50804 6.01753 8.28004 6.09656 8.00004 6.09656Z" fill="#39AA81"/>
<path fill-rule="evenodd" clip-rule="evenodd" d="M8 14.8C11.7555 14.8 14.8 11.7555 14.8 8C14.8 4.24446 11.7555 1.2 8 1.2C4.24446 1.2 1.2 4.24446 1.2 8C1.2 11.7555 4.24446 14.8 8 14.8ZM8 16C12.4183 16 16 12.4183 16 8C16 3.58172 12.4183 0 8 0C3.58172 0 0 3.58172 0 8C0 12.4183 3.58172 16 8 16Z" fill="#39AA81"/>
</svg>
