<svg width="37" height="37" viewBox="0 0 37 37" fill="none" xmlns="http://www.w3.org/2000/svg">
<path d="M20.3063 4.625H13.8752C10.9682 4.625 9.51467 4.625 8.61158 5.52809C7.7085 6.43117 7.7085 7.88467 7.7085 10.7917V26.2083C7.7085 29.1153 7.7085 30.5688 8.61158 31.4719C9.51467 32.375 10.9682 32.375 13.8752 32.375H23.1252C26.0322 32.375 27.4857 32.375 28.3887 31.4719C29.2918 30.5688 29.2918 29.1153 29.2918 26.2083V13.6105C29.2918 12.9803 29.2918 12.6653 29.1745 12.3819C29.0571 12.0986 28.8343 11.8758 28.3887 11.4302L22.4866 5.52809C22.041 5.0825 21.8182 4.8597 21.5349 4.74235C21.2516 4.625 20.9365 4.625 20.3063 4.625Z" stroke="#C6C6C6"/>
<path d="M13.875 20.042L23.125 20.042" stroke="#C6C6C6" stroke-linecap="round"/>
<path d="M13.875 26.208L20.0417 26.208" stroke="#C6C6C6" stroke-linecap="round"/>
<path d="M20.0415 4.625V10.7917C20.0415 12.2452 20.0415 12.9719 20.493 13.4235C20.9446 13.875 21.6713 13.875 23.1248 13.875H29.2915" stroke="#C6C6C6"/>
</svg>
