<svg width="37" height="37" viewBox="0 0 37 37" fill="none" xmlns="http://www.w3.org/2000/svg">
<path d="M20.3059 4.625H13.8747C10.9677 4.625 9.51418 4.625 8.6111 5.52809C7.70801 6.43117 7.70801 7.88467 7.70801 10.7917V26.2083C7.70801 29.1153 7.70801 30.5688 8.6111 31.4719C9.51418 32.375 10.9677 32.375 13.8747 32.375H23.1247C26.0317 32.375 27.4852 32.375 28.3883 31.4719C29.2913 30.5688 29.2913 29.1153 29.2913 26.2083V13.6105C29.2913 12.9803 29.2913 12.6653 29.174 12.3819C29.0566 12.0986 28.8338 11.8758 28.3883 11.4302L22.4861 5.52809C22.0405 5.0825 21.8177 4.8597 21.5344 4.74235C21.2511 4.625 20.936 4.625 20.3059 4.625Z" stroke="#0CA64B"/>
<path d="M13.875 20.042L23.125 20.042" stroke="#0CA64B" stroke-linecap="round"/>
<path d="M13.875 26.208L20.0417 26.208" stroke="#0CA64B" stroke-linecap="round"/>
<path d="M20.042 4.625V10.7917C20.042 12.2452 20.042 12.9719 20.4935 13.4235C20.9451 13.875 21.6718 13.875 23.1253 13.875H29.292" stroke="#0CA64B"/>
</svg>
