<svg width="32" height="32" viewBox="0 0 32 32" fill="none" xmlns="http://www.w3.org/2000/svg">
<rect width="32" height="32" fill="#E5E5E5"/>
<path fill-rule="evenodd" clip-rule="evenodd" d="M9.95398 1.42101C11.518 1.34901 12.0167 1.33301 16.0007 1.33301C19.9846 1.33301 20.4833 1.35034 22.046 1.42101C23.6087 1.49167 24.6753 1.74101 25.6086 2.10234C26.586 2.47167 27.4726 3.04901 28.206 3.79567C28.9526 4.52767 29.5287 5.41301 29.8967 6.39167C30.2593 7.32501 30.5073 8.39167 30.5793 9.95167C30.6513 11.5183 30.6673 12.017 30.6673 15.9997C30.6673 19.9837 30.65 20.4823 30.5793 22.0463C30.5086 23.6063 30.2593 24.673 29.8967 25.6063C29.5286 26.5851 28.9517 27.4719 28.206 28.205C27.4726 28.9517 26.586 29.5277 25.6086 29.8957C24.6753 30.2583 23.6086 30.5063 22.0486 30.5783C20.4833 30.6503 19.9846 30.6663 16.0007 30.6663C12.0167 30.6663 11.518 30.649 9.95398 30.5783C8.39398 30.5077 7.32732 30.2583 6.39398 29.8957C5.41521 29.5276 4.52841 28.9507 3.79532 28.205C3.04916 27.4726 2.47174 26.5862 2.10332 25.6077C1.74198 24.6743 1.49398 23.6077 1.42198 22.0477C1.34998 20.481 1.33398 19.9823 1.33398 15.9997C1.33398 12.0157 1.35132 11.517 1.42198 9.95434C1.49265 8.39167 1.74198 7.32501 2.10332 6.39167C2.47228 5.41312 3.05014 4.52676 3.79665 3.79434C4.5287 3.04834 5.41461 2.47093 6.39265 2.10234C7.32598 1.74101 8.39265 1.49301 9.95265 1.42101H9.95398ZM21.9273 4.06101C20.3806 3.99034 19.9166 3.97567 16.0007 3.97567C12.0847 3.97567 11.6207 3.99034 10.074 4.06101C8.64332 4.12634 7.86732 4.36501 7.34998 4.56634C6.66598 4.83301 6.17665 5.14901 5.66332 5.66234C5.17671 6.13574 4.80222 6.71205 4.56732 7.34901C4.36598 7.86634 4.12732 8.64234 4.06198 10.073C3.99132 11.6197 3.97665 12.0837 3.97665 15.9997C3.97665 19.9157 3.99132 20.3797 4.06198 21.9263C4.12732 23.357 4.36598 24.133 4.56732 24.6503C4.80198 25.2863 5.17665 25.8637 5.66332 26.337C6.13665 26.8237 6.71398 27.1983 7.34998 27.433C7.86732 27.6343 8.64332 27.873 10.074 27.9383C11.6207 28.009 12.0833 28.0237 16.0007 28.0237C19.918 28.0237 20.3806 28.009 21.9273 27.9383C23.358 27.873 24.134 27.6343 24.6513 27.433C25.3353 27.1663 25.8246 26.8503 26.338 26.337C26.8246 25.8637 27.1993 25.2863 27.434 24.6503C27.6353 24.133 27.874 23.357 27.9393 21.9263C28.01 20.3797 28.0246 19.9157 28.0246 15.9997C28.0246 12.0837 28.01 11.6197 27.9393 10.073C27.874 8.64234 27.6353 7.86634 27.434 7.34901C27.1673 6.66501 26.8513 6.17567 26.338 5.66234C25.8646 5.17577 25.2883 4.80129 24.6513 4.56634C24.134 4.36501 23.358 4.12634 21.9273 4.06101V4.06101ZM14.1273 20.521C15.1735 20.9565 16.3385 21.0153 17.4232 20.6873C18.508 20.3593 19.4452 19.6649 20.0748 18.7227C20.7044 17.7804 20.9874 16.6488 20.8754 15.5211C20.7634 14.3935 20.2633 13.3396 19.4607 12.5397C18.949 12.0283 18.3303 11.6368 17.6491 11.3932C16.9679 11.1496 16.2412 11.0602 15.5213 11.1312C14.8014 11.2022 14.1062 11.4319 13.4857 11.8038C12.8653 12.1758 12.335 12.6807 11.9331 13.2821C11.5311 13.8836 11.2676 14.5667 11.1613 15.2823C11.0551 15.9979 11.1089 16.7281 11.3187 17.4204C11.5286 18.1127 11.8893 18.7498 12.3749 19.286C12.8606 19.8221 13.4591 20.2439 14.1273 20.521ZM10.67 10.669C11.37 9.96897 12.2011 9.41368 13.1157 9.03482C14.0304 8.65597 15.0107 8.46097 16.0007 8.46097C16.9906 8.46097 17.9709 8.65597 18.8856 9.03482C19.8002 9.41368 20.6313 9.96897 21.3313 10.669C22.0313 11.369 22.5866 12.2001 22.9655 13.1147C23.3444 14.0294 23.5394 15.0097 23.5394 15.9997C23.5394 16.9897 23.3444 17.97 22.9655 18.8846C22.5866 19.7992 22.0313 20.6303 21.3313 21.3303C19.9175 22.7441 18 23.5384 16.0007 23.5384C14.0013 23.5384 12.0838 22.7441 10.67 21.3303C9.2562 19.9166 8.46195 17.9991 8.46195 15.9997C8.46195 14.0003 9.2562 12.0828 10.67 10.669V10.669ZM25.2113 9.58367C25.3848 9.42003 25.5237 9.22325 25.6197 9.00497C25.7158 8.7867 25.7671 8.55137 25.7705 8.31291C25.774 8.07446 25.7296 7.83774 25.64 7.61675C25.5503 7.39577 25.4172 7.19502 25.2486 7.02639C25.08 6.85776 24.8792 6.72468 24.6582 6.63503C24.4373 6.54538 24.2005 6.50098 23.9621 6.50445C23.7236 6.50793 23.4883 6.55921 23.27 6.65527C23.0517 6.75133 22.855 6.8902 22.6913 7.06367C22.3731 7.40105 22.1988 7.84917 22.2056 8.31291C22.2123 8.77666 22.3996 9.21951 22.7275 9.54746C23.0555 9.87542 23.4983 10.0626 23.9621 10.0694C24.4258 10.0762 24.8739 9.90193 25.2113 9.58367V9.58367Z" fill="white"/>
</svg>
