<svg width="30" height="30" viewBox="0 0 30 30" fill="none" xmlns="http://www.w3.org/2000/svg">
<path d="M21.25 16.4116V21.0329H18.5713V16.7204C18.5713 15.6379 18.1838 14.8991 17.2137 14.8991C16.4738 14.8991 16.0325 15.3966 15.8387 15.8791C15.7687 16.0516 15.75 16.2916 15.75 16.5316V21.0329H13.07C13.07 21.0329 13.1063 13.7304 13.07 12.9741H15.75V14.1154L15.7325 14.1416H15.75V14.1166C16.1063 13.5666 16.7412 12.7841 18.165 12.7841C19.9275 12.7841 21.25 13.9366 21.25 16.4116ZM10.2663 9.08789C9.35 9.08789 8.75 9.69039 8.75 10.4804C8.75 11.2554 9.3325 11.8741 10.2313 11.8741H10.2488C11.1838 11.8741 11.765 11.2541 11.765 10.4804C11.7475 9.69039 11.1838 9.08789 10.2663 9.08789ZM8.90875 21.0329H11.5887V12.9741H8.90875V21.0329Z" fill="white"/>
<path d="M7.5 5C6.83696 5 6.20107 5.26339 5.73223 5.73223C5.26339 6.20107 5 6.83696 5 7.5V22.5C5 23.163 5.26339 23.7989 5.73223 24.2678C6.20107 24.7366 6.83696 25 7.5 25H22.5C23.163 25 23.7989 24.7366 24.2678 24.2678C24.7366 23.7989 25 23.163 25 22.5V7.5C25 6.83696 24.7366 6.20107 24.2678 5.73223C23.7989 5.26339 23.163 5 22.5 5H7.5ZM7.5 2.5H22.5C23.8261 2.5 25.0979 3.02678 26.0355 3.96447C26.9732 4.90215 27.5 6.17392 27.5 7.5V22.5C27.5 23.8261 26.9732 25.0979 26.0355 26.0355C25.0979 26.9732 23.8261 27.5 22.5 27.5H7.5C6.17392 27.5 4.90215 26.9732 3.96447 26.0355C3.02678 25.0979 2.5 23.8261 2.5 22.5V7.5C2.5 6.17392 3.02678 4.90215 3.96447 3.96447C4.90215 3.02678 6.17392 2.5 7.5 2.5Z" fill="white"/>
</svg>
