<svg width="19" height="19" viewBox="0 0 19 19" fill="none" xmlns="http://www.w3.org/2000/svg">
<path d="M9.50065 17.4163C5.1284 17.4163 1.58398 13.8719 1.58398 9.49968C1.58398 5.12742 5.1284 1.58301 9.50065 1.58301C13.8729 1.58301 17.4173 5.12742 17.4173 9.49968C17.4125 13.8699 13.8709 17.4115 9.50065 17.4163ZM9.50065 3.16634C6.00285 3.16634 3.16732 6.00187 3.16732 9.49968C3.16732 12.9975 6.00285 15.833 9.50065 15.833C12.9985 15.833 15.834 12.9975 15.834 9.49968C15.8301 6.0035 12.9968 3.17027 9.50065 3.16634ZM13.459 10.2913H8.70899V5.54134H10.2923V8.70801H13.459V10.2913Z" fill="#0CA64B"/>
</svg>
