<svg width="19" height="18" viewBox="0 0 19 18" fill="none" xmlns="http://www.w3.org/2000/svg">
<g clip-path="url(#clip0_5053_105388)">
<path d="M7.40816 6.00005H1.78316C1.05943 6.00005 0.470703 5.41132 0.470703 4.68745V1.31245C0.470703 0.58873 1.05943 0 1.78316 0H7.40816C8.13202 0 8.72075 0.58873 8.72075 1.31245V4.68745C8.72075 5.41132 8.13202 6.00005 7.40816 6.00005ZM1.78316 1.125C1.67975 1.125 1.5957 1.20905 1.5957 1.31245V4.68745C1.5957 4.791 1.67975 4.87505 1.78316 4.87505H7.40816C7.5117 4.87505 7.59575 4.791 7.59575 4.68745V1.31245C7.59575 1.20905 7.5117 1.125 7.40816 1.125H1.78316Z" fill="white"/>
<path d="M7.40816 18H1.78316C1.05943 18 0.470703 17.4113 0.470703 16.6876V8.81259C0.470703 8.08873 1.05943 7.5 1.78316 7.5H7.40816C8.13202 7.5 8.72075 8.08873 8.72075 8.81259V16.6876C8.72075 17.4113 8.13202 18 7.40816 18ZM1.78316 8.625C1.67975 8.625 1.5957 8.70905 1.5957 8.81259V16.6876C1.5957 16.791 1.67975 16.875 1.78316 16.875H7.40816C7.5117 16.875 7.59575 16.791 7.59575 16.6876V8.81259C7.59575 8.70905 7.5117 8.625 7.40816 8.625H1.78316Z" fill="white"/>
<path d="M17.1583 18H11.5333C10.8094 18 10.2207 17.4113 10.2207 16.6876V13.3126C10.2207 12.5887 10.8094 12 11.5333 12H17.1583C17.882 12 18.4707 12.5887 18.4707 13.3126V16.6876C18.4707 17.4113 17.882 18 17.1583 18ZM11.5333 13.125C11.4297 13.125 11.3457 13.209 11.3457 13.3126V16.6876C11.3457 16.791 11.4297 16.875 11.5333 16.875H17.1583C17.2617 16.875 17.3457 16.791 17.3457 16.6876V13.3126C17.3457 13.209 17.2617 13.125 17.1583 13.125H11.5333Z" fill="white"/>
<path d="M17.1583 10.5H11.5333C10.8094 10.5 10.2207 9.91132 10.2207 9.18745V1.31245C10.2207 0.58873 10.8094 0 11.5333 0H17.1583C17.882 0 18.4707 0.58873 18.4707 1.31245V9.18745C18.4707 9.91132 17.882 10.5 17.1583 10.5ZM11.5333 1.125C11.4297 1.125 11.3457 1.20905 11.3457 1.31245V9.18745C11.3457 9.291 11.4297 9.37505 11.5333 9.37505H17.1583C17.2617 9.37505 17.3457 9.291 17.3457 9.18745V1.31245C17.3457 1.20905 17.2617 1.125 17.1583 1.125H11.5333Z" fill="white"/>
</g>
<defs>
<clipPath id="clip0_5053_105388">
<rect width="18" height="18" fill="white" transform="translate(0.470703)"/>
</clipPath>
</defs>
</svg>
