<svg width="19" height="16" viewBox="0 0 19 16" fill="none" xmlns="http://www.w3.org/2000/svg">
<path d="M18.4707 9.64822C18.4707 11.6227 17.8423 13.497 16.6534 15.0687C16.4189 15.379 15.9778 15.4391 15.6685 15.2052C15.3588 14.971 15.2977 14.53 15.5319 14.2203C16.5345 12.895 17.0645 11.3139 17.0645 9.64822C17.0645 5.45117 13.6654 2.05859 9.4707 2.05859C5.2731 2.05859 1.87695 5.45378 1.87695 9.64822C1.87695 11.3139 2.40691 12.895 3.40941 14.2203C3.64369 14.53 3.58258 14.971 3.2729 15.2052C2.96309 15.4395 2.52226 15.3784 2.28784 15.0687C1.09912 13.497 0.470703 11.6227 0.470703 9.64822C0.470703 4.67361 4.49884 0.652344 9.4707 0.652344C14.4453 0.652344 18.4707 4.67636 18.4707 9.64822ZM13.9258 5.41368C14.2003 5.6882 14.2003 6.13342 13.9258 6.40794L11.6339 8.69983C11.8226 9.04768 11.93 9.44594 11.93 9.86864C11.93 11.2248 10.8267 12.3279 9.4707 12.3279C8.11458 12.3279 7.01141 11.2248 7.01141 9.86864C7.01141 8.51265 8.11458 7.40935 9.4707 7.40935C9.89354 7.40935 10.2917 7.51674 10.6395 7.70543L12.9314 5.41354C13.2061 5.13902 13.6511 5.13902 13.9258 5.41368ZM10.5237 9.86878C10.5237 9.28815 10.0513 8.81574 9.4707 8.81574C8.89008 8.81574 8.41766 9.28815 8.41766 9.86878C8.41766 10.4494 8.89008 10.9218 9.4707 10.9218C10.0513 10.9218 10.5237 10.4494 10.5237 9.86878Z" fill="#D7EEE6"/>
</svg>
