<svg width="19" height="18" viewBox="0 0 19 18" fill="none" xmlns="http://www.w3.org/2000/svg">
<path d="M17.7859 4.15944L9.83749 0.132041L9.83418 0.130389C9.48027 -0.0458144 9.05973 -0.0418769 8.70911 0.140936L5.30005 1.95022C5.27234 1.96196 5.24573 1.9762 5.22024 1.99258L1.13502 4.16074C0.725234 4.3753 0.470703 4.79569 0.470703 5.25839V12.7425C0.470703 13.2052 0.725234 13.6255 1.13502 13.8401L8.70574 17.8582L8.70915 17.86C8.88795 17.9532 9.085 17.9999 9.28209 17.9999C9.47141 17.9999 9.66079 17.9568 9.83418 17.8705L17.7859 13.8414C18.2084 13.6302 18.4707 13.2058 18.4707 12.7333V5.26756C18.4707 4.7951 18.2084 4.37065 17.7859 4.15944ZM9.19779 1.07514C9.24943 1.04863 9.31109 1.04811 9.3632 1.07367L16.8033 4.84347L13.9077 6.28505L6.63387 2.4359L9.19779 1.07514ZM8.74733 16.6867L1.6277 12.908L1.62429 12.9062C1.56308 12.8742 1.525 12.8115 1.525 12.7425V5.73412L8.74733 9.5002V16.6867ZM9.28005 8.58895L2.09745 4.84358L5.50845 3.03328L12.7462 6.8633L9.28005 8.58895ZM17.4163 12.7333C17.4164 12.8038 17.3771 12.8672 17.314 12.8986L9.80166 16.705V9.50698L13.2605 7.78496V9.59041C13.2605 9.88154 13.4966 10.1176 13.7877 10.1176C14.0788 10.1176 14.3149 9.88154 14.3149 9.59041V7.26004L17.4163 5.71598V12.7333Z" fill="white"/>
</svg>
