<svg width="19" height="18" viewBox="0 0 19 18" fill="none" xmlns="http://www.w3.org/2000/svg">
<path d="M15.1537 10.5812C14.2984 10.5812 13.5292 10.9557 13.0005 11.5488L11.804 10.826C12.0253 10.3238 12.1486 9.76902 12.1486 9.18592C12.1486 8.07625 11.703 7.06889 10.9817 6.33265L12.6868 4.16249C12.9585 4.2847 13.2594 4.35328 13.5762 4.35328C14.7764 4.35328 15.7528 3.37686 15.7528 2.17662C15.7528 0.976393 14.7765 0 13.5763 0C12.3761 0 11.3996 0.976428 11.3996 2.17666C11.3996 2.3318 11.4163 2.48312 11.4472 2.62916C11.5166 2.95579 11.6596 3.25532 11.8577 3.5101L10.1528 5.68004C9.54257 5.31597 8.82992 5.1064 8.06911 5.1064C7.03608 5.1064 6.09168 5.49256 5.37217 6.1279L4.3332 5.21971C4.43326 4.99636 4.48936 4.74925 4.48936 4.48916C4.48936 4.36134 4.47569 4.23667 4.45013 4.11633C4.27804 3.30574 3.55695 2.69567 2.69587 2.69567C1.70689 2.69567 0.902344 3.50022 0.902344 4.48916C0.902344 5.47811 1.70689 6.28269 2.69587 6.28269C3.04156 6.28269 3.36458 6.18411 3.63873 6.01399L4.67734 6.92183C4.2432 7.57008 3.98965 8.34893 3.98965 9.18603C3.98965 10.3268 4.46057 11.3596 5.21798 12.1007L3.92644 13.8186C3.66587 13.708 3.37948 13.6468 3.07907 13.6468C1.87888 13.6468 0.902414 14.6233 0.902414 15.8235C0.902414 17.0237 1.87881 18 3.07904 18C4.27927 18 5.2557 17.0236 5.2557 15.8233C5.2557 15.6807 5.2415 15.5414 5.2152 15.4063C5.14577 15.0502 4.98943 14.7249 4.76896 14.4534L6.06053 12.7355C6.65386 13.0726 7.33941 13.2654 8.06921 13.2654C9.35807 13.2654 10.5091 12.6645 11.2572 11.7282L12.4538 12.4511C12.3346 12.767 12.2689 13.1089 12.2689 13.466C12.2689 13.6551 12.2877 13.8397 12.3226 14.0187C12.5812 15.3459 13.752 16.3509 15.1537 16.3509C16.7444 16.3509 18.0386 15.0567 18.0386 13.466C18.0385 11.8753 16.7444 10.5812 15.1537 10.5812ZM13.5763 1.055C14.1947 1.055 14.6979 1.55816 14.6979 2.17666C14.6979 2.79516 14.1948 3.29832 13.5763 3.29832C12.9578 3.29832 12.4546 2.79513 12.4546 2.17666C12.4546 1.55819 12.9578 1.055 13.5763 1.055ZM2.69584 5.22758C2.28859 5.22758 1.95735 4.89627 1.95735 4.48909C1.95735 4.08188 2.28862 3.75064 2.69584 3.75064C3.10305 3.75064 3.43433 4.08191 3.43433 4.48909C3.43436 4.89627 3.10309 5.22758 2.69584 5.22758ZM3.07897 16.945C2.4605 16.945 1.95731 16.4418 1.95731 15.8233C1.95731 15.2048 2.46047 14.7016 3.07897 14.7016C3.69744 14.7016 4.20063 15.2048 4.20063 15.8233C4.20059 16.4418 3.69744 16.945 3.07897 16.945ZM8.06911 12.2104C6.40137 12.2104 5.04462 10.8536 5.04462 9.18592C5.04462 7.51822 6.40144 6.1614 8.06911 6.1614C9.73678 6.1614 11.0936 7.51822 11.0936 9.18592C11.0936 10.8536 9.73681 12.2104 8.06911 12.2104ZM15.1537 15.2958C14.1447 15.2958 13.3239 14.475 13.3239 13.466C13.3239 12.457 14.1447 11.6362 15.1537 11.6362C16.1627 11.6362 16.9836 12.457 16.9836 13.466C16.9836 14.4749 16.1627 15.2958 15.1537 15.2958Z" fill="white"/>
</svg>
