<svg width="19" height="19" viewBox="0 0 19 19" fill="none" xmlns="http://www.w3.org/2000/svg">
<path d="M6.92086 6.87316C6.0713 7.59504 5.75997 8.91156 6.49354 9.96773C7.18001 10.9561 8.04472 11.8206 9.03284 12.5068C10.089 13.2402 11.4055 12.9288 12.1273 12.0792L12.1353 12.0829C13.0573 12.51 14.0366 12.8027 15.0417 12.9519V15.0417L15.0408 15.0417L15.0386 15.0417C8.72537 15.0506 3.95158 10.2213 3.95834 3.96117V3.95833H6.04783L6.04797 3.95926C6.19716 4.96426 6.48977 5.94268 6.9169 6.8646L6.92086 6.87316ZM15.0408 16.625H15.8333C16.2706 16.625 16.625 16.2705 16.625 15.8333V12.269C16.625 11.8767 16.3376 11.5435 15.9496 11.4859L15.2733 11.3856C14.4181 11.2587 13.5854 11.0096 12.8009 10.6462L12.2048 10.3701C11.8595 10.2101 11.4491 10.3186 11.2279 10.6283L10.9581 11.0061C10.7216 11.3372 10.2701 11.4383 9.93593 11.2062C9.10286 10.6277 8.37272 9.89776 7.79398 9.0645C7.56185 8.7303 7.66298 8.27875 7.99412 8.04228L8.3717 7.77264C8.68149 7.5514 8.78996 7.141 8.62993 6.79559L8.35354 6.19901C7.99009 5.41452 7.7411 4.58196 7.61414 3.72676L7.51374 3.05042C7.45613 2.66234 7.12298 2.375 6.73065 2.375H3.16667C2.72945 2.375 2.37501 2.72944 2.37501 3.16667V3.95947C2.36731 11.0896 7.8456 16.6352 15.0408 16.625Z" fill="#0CA64B"/>
</svg>
