<svg width="20" height="14" viewBox="0 0 20 14" fill="none" xmlns="http://www.w3.org/2000/svg">
<path d="M19.8646 7.41228C20.0523 7.1551 20.0442 6.80403 19.8442 6.55502C16.8193 2.83616 13.5535 0.950195 10.1327 0.950195C4.33189 0.950195 0.302788 6.35499 0.135419 6.5836C-0.0523606 6.84077 -0.0441963 7.19184 0.15583 7.44085C3.17664 11.1638 6.44238 13.0498 9.86324 13.0498C15.664 13.0498 19.6931 7.64496 19.8646 7.41228ZM9.86324 11.6496C7.01388 11.6496 4.238 10.082 1.60092 6.99589C2.63371 5.77533 5.91578 2.35038 10.1327 2.35038C12.982 2.35038 15.7579 3.91794 18.395 7.00406C17.3622 8.22463 14.0801 11.6496 9.86324 11.6496Z" fill="#4B4B4C"/>
<path d="M9.99796 3.44434C8.03851 3.44434 6.44238 5.04046 6.44238 6.99991C6.44238 8.95935 8.03851 10.5555 9.99796 10.5555C11.9574 10.5555 13.5535 8.95935 13.5535 6.99991C13.5535 5.04046 11.9574 3.44434 9.99796 3.44434ZM9.99796 9.15529C8.81005 9.15529 7.84257 8.18782 7.84257 6.99991C7.84257 5.81199 8.81005 4.84452 9.99796 4.84452C11.1859 4.84452 12.1534 5.81199 12.1534 6.99991C12.1534 8.18782 11.1859 9.15529 9.99796 9.15529Z" fill="#4B4B4C"/>
</svg>
