<svg width="126" height="113" viewBox="0 0 126 113" fill="none" xmlns="http://www.w3.org/2000/svg">
<rect width="126" height="113" fill="#E5E5E5"/>
<g clip-path="url(#clip0_0_1)">
<rect width="1200" height="3835" transform="translate(-547 -2518)" fill="white"/>
<g filter="url(#filter0_d_0_1)">
<rect x="-549" y="-224" width="1202" height="756" fill="#F6F8FA"/>
</g>
<g filter="url(#filter1_d_0_1)">
<rect x="-111" y="-79" width="339" height="530" rx="15" fill="white"/>
</g>
<path d="M125.999 66.4963C125.996 64.0266 125.768 61.5623 125.319 59.1334C125.281 58.9 125.197 58.6764 125.071 58.4758C124.946 58.2751 124.781 58.1014 124.586 57.9648C124.392 57.8283 124.172 57.7316 123.94 57.6806C123.707 57.6295 123.467 57.6251 123.233 57.6675C122.999 57.7099 122.775 57.7984 122.576 57.9276C122.377 58.0569 122.205 58.2244 122.072 58.4203C121.939 58.6162 121.847 58.8365 121.8 59.0683C121.754 59.3001 121.755 59.5387 121.803 59.7701C122.801 65.1419 122.596 70.6659 121.202 75.9501C119.808 81.2343 117.259 86.1492 113.737 90.3462C110.214 94.5431 105.804 97.9192 100.819 100.235C95.8349 102.551 90.3979 103.749 84.8943 103.746H83.847L86.1578 101.452C86.4834 101.117 86.6635 100.669 86.6594 100.204C86.6554 99.7393 86.4674 99.2944 86.136 98.9655C85.8047 98.6366 85.3564 98.4501 84.8878 98.4461C84.4193 98.442 83.9678 98.6208 83.6307 98.9439L78.2692 104.265C78.1028 104.43 77.9707 104.626 77.8806 104.841C77.7905 105.057 77.7441 105.288 77.7441 105.521C77.7441 105.754 77.7905 105.985 77.8806 106.201C77.9707 106.416 78.1028 106.612 78.2692 106.777L83.6307 112.098C83.9678 112.421 84.4193 112.6 84.8878 112.596C85.3564 112.592 85.8047 112.405 86.136 112.077C86.4674 111.748 86.6554 111.303 86.6594 110.838C86.6635 110.373 86.4834 109.925 86.1578 109.59L83.847 107.293H84.8943C95.7924 107.281 106.241 102.979 113.947 95.331C121.653 87.6827 125.988 77.3127 125.999 66.4963Z" fill="#D8F9DA"/>
<path d="M72.5367 101.2C70.3124 100.459 68.1636 99.5335 66.1161 98.4345C61.6801 96.0425 57.792 92.8578 54.6738 89.0622C51.5556 85.2666 49.2683 80.9345 47.9425 76.3133C46.6168 71.692 46.2785 66.8721 46.9471 62.1287C47.6156 57.3853 49.2779 52.8114 51.839 48.6681L52.3851 47.7868L53.2636 50.8522C53.3911 51.2967 53.7025 51.6756 54.1292 51.9056C54.5559 52.1356 55.0629 52.1979 55.5388 52.0787C56.0146 51.9595 56.4203 51.6687 56.6665 51.2702C56.9128 50.8716 56.9794 50.398 56.8519 49.9536L54.8088 42.8409C54.6821 42.3965 54.3716 42.0173 53.9457 41.7867C53.5197 41.5561 53.0132 41.4928 52.5374 41.6109L44.9224 43.5192C44.4486 43.6398 44.0453 43.9308 43.8006 44.3285C43.5559 44.7262 43.4898 45.1982 43.6167 45.6414C43.7437 46.0845 44.0534 46.4626 44.478 46.693C44.9026 46.9234 45.4077 46.9873 45.8827 46.8708L49.1626 46.0503L48.6185 46.9298C45.8131 51.468 43.9922 56.478 43.26 61.6736C42.5277 66.8692 42.8983 72.1487 44.3507 77.2105C45.8031 82.2723 48.3087 87.0173 51.7246 91.1745C55.1404 95.3317 59.3996 98.8197 64.2588 101.439C66.5003 102.643 68.853 103.656 71.2886 104.466C71.7488 104.607 72.2496 104.575 72.6843 104.376C73.1191 104.177 73.4535 103.827 73.6163 103.401C73.779 102.975 73.7572 102.507 73.5556 102.095C73.3539 101.684 72.9884 101.363 72.5367 101.2Z" fill="#D8F9DA"/>
<path d="M58.0374 38.1227C59.8518 36.6342 61.8016 35.3059 63.8632 34.1538C68.3388 31.6663 73.2796 30.0518 78.4033 29.4027C83.5271 28.7536 88.7334 29.0825 93.7251 30.3705C98.7169 31.6586 103.396 33.8807 107.496 36.9099C111.596 39.939 115.035 43.716 117.619 48.025L118.166 48.9415L114.857 48.0864C114.377 47.9625 113.865 48.0272 113.435 48.2664C113.004 48.5056 112.69 48.8996 112.561 49.3618C112.432 49.824 112.5 50.3165 112.748 50.731C112.997 51.1454 113.406 51.4479 113.886 51.5718L121.569 53.5562C122.049 53.679 122.56 53.6132 122.99 53.3734C123.419 53.1336 123.733 52.7393 123.861 52.2772L125.922 44.8806C125.993 44.6496 126.016 44.4072 125.988 44.1676C125.961 43.9281 125.883 43.6963 125.761 43.4859C125.639 43.2756 125.474 43.0909 125.277 42.9428C125.079 42.7948 124.853 42.6863 124.611 42.6239C124.369 42.5614 124.117 42.5463 123.869 42.5793C123.621 42.6123 123.383 42.6928 123.167 42.816C122.952 42.9393 122.765 43.1028 122.617 43.2969C122.468 43.491 122.362 43.7117 122.303 43.9461L121.417 47.132L120.868 46.2174C117.711 40.9478 113.388 36.4115 108.206 32.9301C103.024 29.4487 97.1101 27.1074 90.8833 26.0724C84.6565 25.0374 78.2695 25.3339 72.1751 26.941C66.0806 28.548 60.4281 31.4262 55.6182 35.3715C55.4306 35.5249 55.2761 35.7124 55.1638 35.9232C55.0514 36.1341 54.9832 36.3642 54.9632 36.6004C54.9432 36.8366 54.9717 37.0743 55.0471 37.2999C55.1225 37.5255 55.2434 37.7345 55.4027 37.9152C55.562 38.0958 55.7568 38.2445 55.9758 38.3527C56.1948 38.4609 56.4338 38.5265 56.6791 38.5457C56.9245 38.565 57.1714 38.5376 57.4057 38.465C57.64 38.3924 57.8572 38.2761 58.0448 38.1227H58.0374Z" fill="#D8F9DA"/>
<path d="M70.653 81.7656C68.2781 83.4989 66.1471 85.6774 64.3398 88.2192C68.1397 92.3333 72.7577 95.1898 77.7441 96.5103C74.3029 92.4748 71.8494 87.3732 70.653 81.7656Z" fill="#D8F9DA"/>
<path d="M85.7871 92.4896C88.9154 91.4261 91.9458 87.6881 93.8297 82.0616C91.2717 81.1389 88.5543 80.5862 85.7871 80.4258V92.4896Z" fill="#D8F9DA"/>
<path d="M83.107 92.4896V80.4258C80.3398 80.5862 77.6224 81.1389 75.0645 82.0616C76.9483 87.6881 79.9787 91.4261 83.107 92.4896Z" fill="#D8F9DA"/>
<path d="M83.1056 68.3613H73.7227C73.7934 71.5118 74.1121 74.6504 74.6752 77.7443C77.3671 76.6036 80.2132 75.9282 83.1056 75.7434V68.3613Z" fill="#D8F9DA"/>
<path d="M83.107 41.5527C79.9787 42.6163 76.9483 46.3543 75.0645 51.9807C77.6224 52.9034 80.3398 53.4561 83.107 53.6166V41.5527Z" fill="#D8F9DA"/>
<path d="M97.6117 81.7656C96.2958 87.3738 93.5959 92.4755 89.8086 96.5103C95.2936 95.1917 100.373 92.3369 104.553 88.2242C102.567 85.6807 100.224 83.5006 97.6117 81.7656Z" fill="#D8F9DA"/>
<path d="M83.1056 58.3016C80.213 58.1158 77.3669 57.4393 74.6752 56.2979C74.1119 59.3918 73.7933 62.5304 73.7227 65.6808H83.1056V58.3016Z" fill="#D8F9DA"/>
<path d="M77.7441 37.5322C72.7578 38.7321 68.1397 41.3289 64.3398 45.0696C66.1466 47.3804 68.277 49.3608 70.6512 50.9365C71.8484 45.8382 74.3025 41.2004 77.7441 37.5322Z" fill="#D8F9DA"/>
<path d="M62.6303 85.7869C65.0195 83.2225 67.8653 81.063 71.0421 79.4036C70.2019 75.7725 69.7316 72.0752 69.6375 68.3613H54.957C55.3796 74.8025 58.0782 80.931 62.6303 85.7869Z" fill="#D8F9DA"/>
<path d="M106.263 85.7869C110.815 80.931 113.514 74.8025 113.937 68.3613H99.2562C99.1621 72.0752 98.6918 75.7725 97.8516 79.4036C101.028 81.063 103.874 83.2225 106.263 85.7869Z" fill="#D8F9DA"/>
<path d="M62.6303 46.915C58.0782 52.1445 55.3796 58.7443 54.957 65.681H69.6375C69.7316 61.6814 70.2019 57.6998 71.0421 53.7893C67.8653 52.0023 65.0195 49.6766 62.6303 46.915Z" fill="#D8F9DA"/>
<path d="M85.7871 75.7406C88.6797 75.9264 91.5258 76.6028 94.2176 77.7443C94.7817 74.6505 95.1003 71.5118 95.1701 68.3613H85.7871V75.7406Z" fill="#D8F9DA"/>
<path d="M106.263 46.915C103.874 49.6766 101.028 52.0023 97.8516 53.7893C98.6918 57.6998 99.1621 61.6814 99.2562 65.681H113.937C113.514 58.7443 110.815 52.1445 106.263 46.915Z" fill="#D8F9DA"/>
<path d="M85.7871 65.6808H95.1701C95.0993 62.5304 94.7807 59.3918 94.2176 56.2979C91.5256 57.4385 88.6796 58.114 85.7871 58.2987V65.6808Z" fill="#D8F9DA"/>
<path d="M104.553 45.065C100.373 41.3272 95.2936 38.7321 89.8086 37.5322C93.5967 41.2004 96.297 45.8384 97.6129 50.9365C100.224 49.3589 102.567 47.3769 104.553 45.065Z" fill="#D8F9DA"/>
<path d="M85.7871 41.5527V53.6166C88.5543 53.4561 91.2717 52.9034 93.8297 51.9807C91.9458 46.3543 88.9154 42.6241 85.7871 41.5527Z" fill="#D8F9DA"/>
<path d="M93.24 11.881H63.4826V5.94052C63.4808 4.36553 62.8533 2.85553 61.7375 1.74184C60.6218 0.628146 59.109 0.00171918 57.5311 0H41.6604C40.0825 0.00171918 38.5697 0.628146 37.454 1.74184C36.3382 2.85553 35.7107 4.36553 35.7089 5.94052V11.881H5.95149C4.37359 11.8828 2.8608 12.5092 1.74505 13.6229C0.629306 14.7366 0.00172235 16.2466 0 17.8216V81.1871C0.00172235 82.7621 0.629306 84.2721 1.74505 85.3858C2.8608 86.4995 4.37359 87.1259 5.95149 87.1277H93.24C94.8179 87.1259 96.3307 86.4995 97.4464 85.3858C98.5622 84.2721 99.1898 82.7621 99.1915 81.1871V17.8216C99.1898 16.2466 98.5622 14.7366 97.4464 13.6229C96.3307 12.5092 94.8179 11.8828 93.24 11.881ZM39.6766 5.94052C39.6769 5.41546 39.8861 4.91199 40.258 4.54072C40.63 4.16944 41.1344 3.9607 41.6604 3.96035H57.5311C58.0571 3.9607 58.5615 4.16944 58.9335 4.54072C59.3054 4.91199 59.5145 5.41546 59.5149 5.94052V11.881H39.6766V5.94052ZM5.95149 15.8414H93.24C93.766 15.8417 94.2704 16.0505 94.6424 16.4218C95.0144 16.793 95.2235 17.2965 95.2238 17.8216V48.0102L57.5311 58.7597V58.4151C57.5299 57.1026 57.0069 55.8441 56.0771 54.916C55.1473 53.9879 53.8865 53.4659 52.5715 53.4647H46.62C45.305 53.4659 44.0442 53.9879 43.1144 54.916C42.1846 55.8441 41.6616 57.1026 41.6604 58.4151V58.7597L3.96766 48.0102V17.8216C3.96801 17.2965 4.17713 16.793 4.5491 16.4218C4.92106 16.0505 5.42545 15.8417 5.95149 15.8414ZM53.5634 58.4151V64.3557C53.5629 64.6181 53.4582 64.8696 53.2723 65.0552C53.0864 65.2407 52.8344 65.3452 52.5715 65.3457H46.62C46.3571 65.3452 46.1051 65.2407 45.9192 65.0552C45.7333 64.8696 45.6286 64.6181 45.6281 64.3557V58.4151C45.6286 58.1527 45.7333 57.9012 45.9192 57.7156C46.1051 57.53 46.3571 57.4256 46.62 57.425H52.5715C52.8344 57.4256 53.0864 57.53 53.2723 57.7156C53.4582 57.9012 53.5629 58.1527 53.5634 58.4151ZM93.24 83.1673H5.95149C5.42545 83.167 4.92106 82.9582 4.5491 82.5869C4.17713 82.2157 3.96801 81.7122 3.96766 81.1871V52.1302L41.6604 62.8796V64.3557C41.6616 65.6682 42.1846 66.9267 43.1144 67.8548C44.0442 68.7829 45.305 69.3049 46.62 69.3061H52.5715C53.8865 69.3049 55.1473 68.7829 56.0771 67.8548C57.0069 66.9267 57.5299 65.6682 57.5311 64.3557V62.8796L95.2238 52.1302V81.1871C95.2235 81.7122 95.0144 82.2157 94.6424 82.5869C94.2704 82.9582 93.766 83.167 93.24 83.1673Z" fill="#1BA548"/>
</g>
<defs>
<filter id="filter0_d_0_1" x="-553" y="-224" width="1210" height="764" filterUnits="userSpaceOnUse" color-interpolation-filters="sRGB">
<feFlood flood-opacity="0" result="BackgroundImageFix"/>
<feColorMatrix in="SourceAlpha" type="matrix" values="0 0 0 0 0 0 0 0 0 0 0 0 0 0 0 0 0 0 127 0" result="hardAlpha"/>
<feOffset dy="4"/>
<feGaussianBlur stdDeviation="2"/>
<feComposite in2="hardAlpha" operator="out"/>
<feColorMatrix type="matrix" values="0 0 0 0 0 0 0 0 0 0 0 0 0 0 0 0 0 0 0.25 0"/>
<feBlend mode="normal" in2="BackgroundImageFix" result="effect1_dropShadow_0_1"/>
<feBlend mode="normal" in="SourceGraphic" in2="effect1_dropShadow_0_1" result="shape"/>
</filter>
<filter id="filter1_d_0_1" x="-115" y="-79" width="347" height="538" filterUnits="userSpaceOnUse" color-interpolation-filters="sRGB">
<feFlood flood-opacity="0" result="BackgroundImageFix"/>
<feColorMatrix in="SourceAlpha" type="matrix" values="0 0 0 0 0 0 0 0 0 0 0 0 0 0 0 0 0 0 127 0" result="hardAlpha"/>
<feOffset dy="4"/>
<feGaussianBlur stdDeviation="2"/>
<feComposite in2="hardAlpha" operator="out"/>
<feColorMatrix type="matrix" values="0 0 0 0 0 0 0 0 0 0 0 0 0 0 0 0 0 0 0.25 0"/>
<feBlend mode="normal" in2="BackgroundImageFix" result="effect1_dropShadow_0_1"/>
<feBlend mode="normal" in="SourceGraphic" in2="effect1_dropShadow_0_1" result="shape"/>
</filter>
<clipPath id="clip0_0_1">
<rect width="1200" height="3835" fill="white" transform="translate(-547 -2518)"/>
</clipPath>
</defs>
</svg>
