<svg width="165" height="165" viewBox="0 0 165 165" fill="none" xmlns="http://www.w3.org/2000/svg">
<rect width="165" height="165" fill="#E5E5E5"/>
<g clip-path="url(#clip0_0_1)">
<rect width="1200" height="3835" transform="translate(-156 -637)" fill="white"/>
<path d="M155.785 85.8689C154.475 81.8515 156.316 75.613 153.105 71.2403C149.895 66.8675 143.292 66.6443 139.907 64.2022C136.607 61.8186 134.311 55.5996 129.083 53.916C123.959 52.2691 118.556 55.929 114.231 55.929C109.907 55.929 104.495 52.267 99.3794 53.916C93.9957 55.6495 92.0082 61.7168 88.553 64.2022C85.1917 66.6313 78.5828 66.8458 75.3569 71.2403C72.131 75.6347 74.005 81.8082 72.6771 85.8689C71.4234 89.6783 66.1816 93.7152 66.1816 99.2668C66.1816 104.818 71.4431 108.886 72.6771 112.663C74.0181 116.76 72.1354 122.899 75.3569 127.291C78.5784 131.684 85.1634 131.881 88.5552 134.329C91.8553 136.713 94.1508 142.932 99.3794 144.616C104.608 146.299 109.828 142.605 114.231 142.605C118.58 142.605 123.979 146.258 129.083 144.616C134.466 142.882 136.454 136.815 139.909 134.329C143.273 131.9 149.879 131.688 153.105 127.291C156.399 122.799 154.416 116.821 155.785 112.663C157.039 108.844 162.281 104.816 162.281 99.2668C162.281 93.7174 157.019 89.6393 155.785 85.8689ZM114.231 127.436C108.616 127.436 103.126 125.784 98.4569 122.689C93.7877 119.594 90.1485 115.194 87.9995 110.047C85.8505 104.9 85.2882 99.2356 86.3838 93.7712C87.4793 88.3068 90.1835 83.2875 94.1543 79.3479C98.1251 75.4083 103.184 72.7254 108.692 71.6385C114.2 70.5516 119.908 71.1094 125.097 73.2415C130.285 75.3736 134.719 78.9842 137.839 83.6166C140.959 88.2491 142.624 93.6954 142.624 99.2668C142.615 106.735 139.621 113.895 134.298 119.176C128.975 124.457 121.759 127.428 114.231 127.436Z" fill="#D8F9DA"/>
<path d="M98.3065 149.115C94.4614 147.581 91.2002 144.892 88.9819 141.429L81.7528 159.29C81.6183 159.62 81.5679 159.979 81.6062 160.333C81.6445 160.688 81.7701 161.028 81.9722 161.323C82.1743 161.618 82.4466 161.86 82.7652 162.027C83.0839 162.194 83.4391 162.281 83.7997 162.28H105.833C106.274 162.281 106.704 162.151 107.069 161.907C107.434 161.663 107.716 161.317 107.88 160.912L113.325 147.484C109.403 148.292 104.09 150.954 98.3065 149.115Z" fill="#D8F9DA"/>
<path d="M130.628 149.115C134.365 147.581 137.534 144.892 139.69 141.429L146.715 159.29C146.845 159.62 146.894 159.979 146.857 160.333C146.82 160.688 146.698 161.028 146.501 161.323C146.305 161.618 146.04 161.86 145.731 162.027C145.421 162.194 145.076 162.281 144.725 162.28H123.314C122.886 162.281 122.468 162.151 122.113 161.907C121.759 161.663 121.484 161.317 121.325 160.912L116.045 147.484C119.803 148.283 124.973 150.973 130.628 149.115Z" fill="#D8F9DA"/>
<path d="M114.685 75.2471C109.933 75.2471 105.288 76.6561 101.337 79.296C97.3866 81.9358 94.3073 85.688 92.4889 90.0779C90.6706 94.4679 90.1948 99.2984 91.1218 103.959C92.0488 108.619 94.3369 112.9 97.6968 116.26C101.057 119.62 105.338 121.908 109.998 122.835C114.658 123.762 119.489 123.286 123.879 121.468C128.269 119.649 132.021 116.57 134.661 112.619C137.301 108.668 138.71 104.023 138.71 99.2718C138.703 92.9022 136.169 86.7954 131.665 82.2914C127.161 77.7874 121.055 75.254 114.685 75.2471ZM114.685 116.744C114.106 116.744 113.55 116.514 113.141 116.105C112.731 115.695 112.501 115.139 112.501 114.56C112.501 113.981 112.731 113.425 113.141 113.016C113.55 112.606 114.106 112.376 114.685 112.376C118.159 112.372 121.49 110.99 123.947 108.534C126.403 106.077 127.785 102.746 127.789 99.2718C127.789 98.6925 128.019 98.137 128.429 97.7274C128.839 97.3178 129.394 97.0877 129.973 97.0877C130.553 97.0877 131.108 97.3178 131.518 97.7274C131.927 98.137 132.157 98.6925 132.157 99.2718C132.152 103.904 130.31 108.345 127.034 111.621C123.758 114.897 119.317 116.739 114.685 116.744Z" fill="#D8F9DA"/>
<path d="M42.0062 96.3934C42.4897 96.8768 43.1453 97.1483 43.829 97.1483C44.5126 97.1483 45.1682 96.8768 45.6517 96.3934L84.6355 57.4096C85.1189 56.9261 85.3904 56.2705 85.3904 55.5869C85.3904 54.9032 85.1189 54.2476 84.6355 53.7641L73.6991 42.8252C73.2157 42.3418 72.56 42.0703 71.8764 42.0703C71.1928 42.0703 70.5371 42.3418 70.0537 42.8252L43.829 69.0473L33.073 58.2939C32.5896 57.8106 31.9339 57.5391 31.2503 57.5391C30.5667 57.5391 29.911 57.8106 29.4276 58.2939L18.4912 69.2329C18.0078 69.7164 17.7363 70.372 17.7363 71.0556C17.7363 71.7392 18.0078 72.3949 18.4912 72.8784L42.0062 96.3934ZM31.2503 63.7621L42.0062 74.5077C42.4897 74.9911 43.1453 75.2626 43.829 75.2626C44.5126 75.2626 45.1682 74.9911 45.6517 74.5077L71.8764 48.2934L79.1673 55.5869L43.829 90.9252L23.9594 71.0556L31.2503 63.7621Z" fill="#1BA548"/>
<path d="M92.8125 2.57812H25.7812C25.097 2.58163 24.4414 2.85384 23.9559 3.33609L3.33094 23.9611C2.85229 24.4465 2.58216 25.0996 2.57812 25.7812V123.75C2.57813 125.801 3.39299 127.769 4.84347 129.219C6.29395 130.669 8.26122 131.484 10.3125 131.484H92.8125C94.8638 131.484 96.831 130.669 98.2815 129.219C99.732 127.769 100.547 125.801 100.547 123.75V10.3125C100.547 8.26122 99.732 6.29395 98.2815 4.84347C96.831 3.39299 94.8638 2.57813 92.8125 2.57812ZM23.2031 11.3798V23.2031H11.3798L23.2031 11.3798ZM95.3906 123.75C95.3906 124.434 95.119 125.09 94.6355 125.573C94.152 126.057 93.4963 126.328 92.8125 126.328H10.3125C9.62874 126.328 8.97298 126.057 8.48949 125.573C8.006 125.09 7.73438 124.434 7.73438 123.75V28.3594H25.7812C26.465 28.3594 27.1208 28.0878 27.6043 27.6043C28.0878 27.1208 28.3594 26.465 28.3594 25.7812V7.73438H92.8125C93.4963 7.73438 94.152 8.006 94.6355 8.48949C95.119 8.97298 95.3906 9.62874 95.3906 10.3125V123.75Z" fill="#1BA548"/>
<path d="M85.0781 113.438H18.0469C17.3631 113.438 16.7074 113.709 16.2239 114.193C15.7404 114.676 15.4688 115.332 15.4688 116.016C15.4688 116.699 15.7404 117.355 16.2239 117.839C16.7074 118.322 17.3631 118.594 18.0469 118.594H85.0781C85.7619 118.594 86.4176 118.322 86.9011 117.839C87.3846 117.355 87.6562 116.699 87.6562 116.016C87.6562 115.332 87.3846 114.676 86.9011 114.193C86.4176 113.709 85.7619 113.438 85.0781 113.438Z" fill="#1BA548"/>
</g>
<defs>
<clipPath id="clip0_0_1">
<rect width="1200" height="3835" fill="white" transform="translate(-156 -637)"/>
</clipPath>
</defs>
</svg>
