<svg width="35" height="37" viewBox="0 0 35 37" fill="none" xmlns="http://www.w3.org/2000/svg">
<path d="M34.738 16.4507C28.2762 13.1831 21.7238 13.1831 15.262 16.4507C15.1834 16.4907 15.1174 16.5519 15.0712 16.6275C15.025 16.7031 15.0003 16.7902 15.0001 16.8791V20.5558C14.9905 23.8803 15.902 27.1411 17.6314 29.969C19.3609 32.797 21.8392 35.0792 24.7857 36.5572C24.8522 36.5911 24.9256 36.6087 25 36.6087C25.0744 36.6087 25.1478 36.5911 25.2143 36.5572C28.1608 35.0792 30.6391 32.797 32.3686 29.969C34.098 27.1411 35.0095 23.8803 34.9999 20.5558V16.8791C34.9997 16.7902 34.975 16.7031 34.9288 16.6275C34.8826 16.5519 34.8166 16.4907 34.738 16.4507ZM29.8142 23.4144L24.4286 27.9477C24.352 28.0115 24.2575 28.0495 24.1585 28.0564C24.0595 28.0633 23.9608 28.0388 23.8762 27.9862L20.2381 25.6907C20.1308 25.623 20.0544 25.5151 20.0258 25.3905C19.9973 25.266 20.0188 25.135 20.0858 25.0266C20.1527 24.9181 20.2595 24.8409 20.3828 24.812C20.506 24.7831 20.6355 24.8049 20.7429 24.8726L24.0762 26.9708L29.1952 22.6781C29.2422 22.6321 29.2981 22.5964 29.3594 22.5733C29.4207 22.5501 29.486 22.54 29.5513 22.5434C29.6167 22.5469 29.6806 22.564 29.7391 22.5935C29.7976 22.6231 29.8495 22.6645 29.8915 22.7152C29.9334 22.7659 29.9646 22.8248 29.9831 22.8883C30.0015 22.9517 30.0069 23.0183 29.9987 23.0839C29.9906 23.1495 29.9692 23.2127 29.9358 23.2696C29.9024 23.3264 29.8578 23.3757 29.8047 23.4144H29.8142Z" fill="#D8F9DA"/>
<path d="M14.9992 28.9984H19.6656M1 5.66641L5.66641 7.22188L1 5.66641ZM5.66641 7.22188L1 21.2211C2.34657 22.2307 3.98419 22.7764 5.66719 22.7764C7.35018 22.7764 8.9878 22.2307 10.3344 21.2211L5.66641 7.22188ZM5.66641 7.22188L10.3328 21.2211L5.66641 7.22188ZM5.66641 7.22188L14.9992 4.11094L5.66641 7.22188ZM24.332 7.22188L28.9984 5.66641L24.332 7.22188ZM24.332 7.22188L19.6656 21.2211C21.0122 22.2307 22.6498 22.7764 24.3328 22.7764C26.0158 22.7764 27.6534 22.2307 29 21.2211L24.332 7.22188ZM24.332 7.22188L28.9984 21.2211L24.332 7.22188ZM24.332 7.22188L14.9992 4.11094L24.332 7.22188ZM14.9992 1V4.11094V1ZM14.9992 28.9984V4.11094V28.9984ZM14.9992 28.9984H10.3328H14.9992Z" stroke="#1BA548" stroke-linecap="round" stroke-linejoin="round"/>
</svg>
