<svg width="116" height="116" viewBox="0 0 116 116" fill="none" xmlns="http://www.w3.org/2000/svg">
<rect width="116" height="116" fill="#E5E5E5"/>
<g clip-path="url(#clip0_0_1)">
<rect width="1200" height="3835" transform="translate(-922 -2518)" fill="white"/>
<g filter="url(#filter0_d_0_1)">
<rect x="-924" y="-224" width="1202" height="756" fill="#F6F8FA"/>
</g>
<g filter="url(#filter1_d_0_1)">
<rect x="-111" y="-79" width="339" height="530" rx="15" fill="white"/>
</g>
<path d="M87.7952 46.998C93.4426 43.8802 98.0996 39.2373 101.235 33.5994C101.402 33.3245 101.493 33.0101 101.499 32.6882C101.505 32.3664 101.425 32.0489 101.267 31.7682C101.11 31.4875 100.881 31.2537 100.603 31.0909C100.325 30.9281 100.009 30.8421 99.6875 30.8417C97.4789 30.8165 95.3341 31.5825 93.6411 33.0011C92.5649 33.9654 91.1708 34.4986 89.7258 34.4986C88.2809 34.4986 86.8867 33.9654 85.8106 33.0011C84.1114 31.587 81.9706 30.8127 79.7599 30.8125C77.5492 30.8123 75.4083 31.5864 73.7089 33.0003C72.6309 33.9657 71.2347 34.4996 69.7876 34.4997C68.3405 34.4999 66.9442 33.9663 65.866 33.0011C64.1703 31.5823 62.0233 30.8164 59.8125 30.8417C59.4907 30.8422 59.1748 30.9283 58.8972 31.0911C58.6196 31.254 58.3904 31.4877 58.2329 31.7684C58.0755 32.049 57.9955 32.3665 58.0012 32.6883C58.007 33.0101 58.0982 33.3245 58.2655 33.5994C61.4004 39.2373 66.0574 43.8802 71.7048 46.998C57.0659 53.0715 47.125 74.6676 47.125 89.9745C47.125 114.217 71.6805 114.217 79.75 114.217C87.8195 114.217 112.375 114.217 112.375 89.9745C112.375 74.6676 102.434 53.0715 87.7952 46.998ZM90.7507 99.7167H90.7348L70.3388 99.5362C69.9993 99.5327 69.6676 99.4339 69.3815 99.2512C69.0953 99.0685 68.8662 98.8092 68.7201 98.5027C68.5741 98.1962 68.517 97.8549 68.5553 97.5176C68.5936 97.1802 68.7259 96.8604 68.937 96.5945L71.5707 93.2846C75.088 88.5645 74.154 87.6695 74.0047 83.976H68.7493C68.2686 83.976 67.8076 83.7851 67.4677 83.4452C67.1278 83.1053 66.9368 82.6442 66.9368 82.1635C66.9368 81.6828 67.1278 81.2218 67.4677 80.8819C67.8076 80.542 68.2686 80.351 68.7493 80.351H72.5933C71.1616 77.9703 70.3358 75.2748 70.1884 72.5007L70.1865 72.4921L70.1871 72.4834L70.1865 72.4762L70.1879 72.4698C70.1596 70.9379 70.5566 69.428 71.3347 68.1081C72.1128 66.7881 73.2416 65.7096 74.5957 64.9925C76.4779 63.9916 78.5779 63.4702 80.7098 63.4745C82.8416 63.4788 84.9395 64.0087 86.8177 65.0173C89.2114 66.3561 91.0262 68.5321 91.9136 71.1274C91.979 71.3565 91.9986 71.5963 91.9713 71.8331C91.944 72.0698 91.8702 72.2988 91.7542 72.507C91.6382 72.7152 91.4824 72.8985 91.2955 73.0463C91.1086 73.1942 90.8943 73.3037 90.665 73.3687C90.4357 73.4336 90.1959 73.4527 89.9592 73.4248C89.7226 73.3969 89.4937 73.3227 89.2858 73.2062C89.0779 73.0898 88.8949 72.9334 88.7475 72.7462C88.6001 72.559 88.491 72.3445 88.4266 72.1151C87.7786 70.4068 86.5395 68.9875 84.9344 68.1149C83.6084 67.439 82.1402 67.0896 80.6519 67.0958C79.1637 67.1019 77.6984 67.4635 76.3781 68.1503C75.5825 68.5522 74.9182 69.1731 74.4635 69.9398C74.0089 70.7064 73.7827 71.5871 73.8116 72.478L73.81 72.4859L73.8116 72.4939C74.1005 75.3384 75.1503 78.0526 76.8507 80.3511H83.0741C83.5548 80.3511 84.0159 80.5421 84.3558 80.882C84.6957 81.2219 84.8866 81.6829 84.8866 82.1636C84.8866 82.6443 84.6957 83.1053 84.3558 83.4452C84.0159 83.7852 83.5548 83.9761 83.0741 83.9761H77.6543C77.6008 87.8727 78.9616 89.4347 74.4417 95.4972L74.0859 95.9449L90.7666 96.0917C91.0046 96.0928 91.2401 96.1407 91.4596 96.2327C91.6791 96.3248 91.8784 96.4592 92.0459 96.6282C92.2135 96.7973 92.3461 96.9977 92.4362 97.218C92.5264 97.4383 92.5722 97.6742 92.5712 97.9122C92.5701 98.1502 92.5222 98.3857 92.4301 98.6052C92.3381 98.8247 92.2037 99.0239 92.0347 99.1915C91.8656 99.3591 91.6652 99.4917 91.4449 99.5818C91.2246 99.6719 90.9887 99.7178 90.7507 99.7167Z" fill="#D8F9DA"/>
<path d="M77.0313 56.1875L67.0625 66.1562L58 101.5L77.0313 108.75L97.875 101.5V76.125L88.8125 56.1875H77.0313Z" fill="#D8F9DA"/>
<text fill="white" xml:space="preserve" style="white-space: pre" font-family="Arial Rounded MT Bold" font-size="25" font-weight="bold" letter-spacing="0em"><tspan x="63.4375" y="90.7544">Rp</tspan></text>
<path d="M43.8022 16.3125C43.4016 16.3125 43.0174 16.4869 42.7342 16.7972C42.4509 17.1075 42.2918 17.5285 42.2918 17.9674V43.8644L36.5812 51.6853C36.4572 51.8551 36.365 52.0499 36.3098 52.2587C36.2545 52.4675 36.2373 52.6861 36.2592 52.9022C36.2811 53.1182 36.3416 53.3275 36.4373 53.5179C36.5329 53.7083 36.6619 53.8763 36.8168 54.0121C36.9717 54.1479 37.1495 54.249 37.3401 54.3095C37.5306 54.3701 37.7302 54.3889 37.9274 54.3649C38.1246 54.3409 38.3155 54.2746 38.4893 54.1698C38.6631 54.065 38.8164 53.9237 38.9404 53.7539L44.9817 45.4796C45.196 45.186 45.3127 44.8212 45.3125 44.4453V17.9674C45.3125 17.5285 45.1534 17.1075 44.8701 16.7972C44.5869 16.4869 44.2027 16.3125 43.8022 16.3125Z" fill="#1BA548"/>
<path d="M87 44.4063C87 35.982 84.5019 27.7469 79.8216 20.7424C75.1414 13.7379 68.4892 8.27859 60.7062 5.05477C52.9232 1.83096 44.359 0.987457 36.0966 2.63095C27.8343 4.27443 20.2448 8.33109 14.2879 14.2879C8.33109 20.2448 4.27443 27.8343 2.63095 36.0966C0.987457 44.359 1.83096 52.9232 5.05477 60.7062C8.27859 68.4892 13.7379 75.1414 20.7424 79.8216C27.7469 84.5019 35.982 87 44.4063 87C55.6989 86.9874 66.5255 82.4958 74.5106 74.5106C82.4958 66.5255 86.9874 55.6989 87 44.4063ZM69.7069 67.2978C69.3856 66.9875 68.9552 66.8158 68.5085 66.8196C68.0618 66.8235 67.6345 67.0027 67.3186 67.3186C67.0027 67.6345 66.8235 68.0618 66.8196 68.5085C66.8158 68.9552 66.9875 69.3856 67.2978 69.7069L70.8757 73.2848C64.0912 79.5229 55.3182 83.1592 46.11 83.5499V78.4812C46.11 78.0294 45.9305 77.596 45.611 77.2765C45.2915 76.957 44.8581 76.7775 44.4063 76.7775C43.9544 76.7775 43.521 76.957 43.2015 77.2765C42.882 77.596 42.7025 78.0294 42.7025 78.4812V83.5499C33.4959 83.1555 24.7255 79.5169 17.9436 73.278L21.5215 69.7001C21.6842 69.543 21.814 69.3549 21.9033 69.1471C21.9926 68.9392 22.0396 68.7157 22.0416 68.4894C22.0435 68.2632 22.0004 68.0389 21.9148 67.8295C21.8291 67.6201 21.7026 67.4299 21.5426 67.2699C21.3826 67.1099 21.1924 66.9834 20.983 66.8978C20.7736 66.8121 20.5493 66.769 20.3231 66.771C20.0969 66.7729 19.8733 66.8199 19.6654 66.9092C19.4576 66.9985 19.2696 67.1283 19.1124 67.291L15.5345 70.8689C9.29565 64.087 5.65704 55.3167 5.26261 46.11H10.3313C10.7831 46.11 11.2165 45.9305 11.536 45.611C11.8555 45.2915 12.035 44.8581 12.035 44.4063C12.035 43.9544 11.8555 43.521 11.536 43.2015C11.2165 42.882 10.7831 42.7025 10.3313 42.7025H5.26261C5.65704 33.4959 9.29565 24.7255 15.5345 17.9436L19.1124 21.5215C19.4337 21.8318 19.8641 22.0036 20.3108 21.9997C20.7575 21.9958 21.1848 21.8166 21.5007 21.5007C21.8166 21.1848 21.9958 20.7575 21.9997 20.3108C22.0036 19.8641 21.8318 19.4337 21.5215 19.1124L17.9436 15.5345C24.7255 9.29565 33.4959 5.65704 42.7025 5.26261V10.3313C42.7025 10.7831 42.882 11.2165 43.2015 11.536C43.521 11.8555 43.9544 12.035 44.4063 12.035C44.8581 12.035 45.2915 11.8555 45.611 11.536C45.9305 11.2165 46.11 10.7831 46.11 10.3313V5.26261C55.3167 5.65675 64.0871 9.29539 70.8689 15.5345L67.291 19.1124C66.9807 19.4337 66.8089 19.8641 66.8128 20.3108C66.8167 20.7575 66.9959 21.1848 67.3118 21.5007C67.6277 21.8166 68.055 21.9958 68.5017 21.9997C68.9484 22.0036 69.3788 21.8318 69.7001 21.5215L73.278 17.9436C79.5171 24.7254 83.1558 33.4958 83.5499 42.7025H78.4812C78.0294 42.7025 77.596 42.882 77.2765 43.2015C76.957 43.521 76.7775 43.9544 76.7775 44.4063C76.7775 44.8581 76.957 45.2915 77.2765 45.611C77.596 45.9305 78.0294 46.11 78.4812 46.11H83.5499C83.1558 55.3167 79.5171 64.0871 73.278 70.8689L69.7069 67.2978Z" fill="#1BA548"/>
</g>
<defs>
<filter id="filter0_d_0_1" x="-928" y="-224" width="1210" height="764" filterUnits="userSpaceOnUse" color-interpolation-filters="sRGB">
<feFlood flood-opacity="0" result="BackgroundImageFix"/>
<feColorMatrix in="SourceAlpha" type="matrix" values="0 0 0 0 0 0 0 0 0 0 0 0 0 0 0 0 0 0 127 0" result="hardAlpha"/>
<feOffset dy="4"/>
<feGaussianBlur stdDeviation="2"/>
<feComposite in2="hardAlpha" operator="out"/>
<feColorMatrix type="matrix" values="0 0 0 0 0 0 0 0 0 0 0 0 0 0 0 0 0 0 0.25 0"/>
<feBlend mode="normal" in2="BackgroundImageFix" result="effect1_dropShadow_0_1"/>
<feBlend mode="normal" in="SourceGraphic" in2="effect1_dropShadow_0_1" result="shape"/>
</filter>
<filter id="filter1_d_0_1" x="-115" y="-79" width="347" height="538" filterUnits="userSpaceOnUse" color-interpolation-filters="sRGB">
<feFlood flood-opacity="0" result="BackgroundImageFix"/>
<feColorMatrix in="SourceAlpha" type="matrix" values="0 0 0 0 0 0 0 0 0 0 0 0 0 0 0 0 0 0 127 0" result="hardAlpha"/>
<feOffset dy="4"/>
<feGaussianBlur stdDeviation="2"/>
<feComposite in2="hardAlpha" operator="out"/>
<feColorMatrix type="matrix" values="0 0 0 0 0 0 0 0 0 0 0 0 0 0 0 0 0 0 0.25 0"/>
<feBlend mode="normal" in2="BackgroundImageFix" result="effect1_dropShadow_0_1"/>
<feBlend mode="normal" in="SourceGraphic" in2="effect1_dropShadow_0_1" result="shape"/>
</filter>
<clipPath id="clip0_0_1">
<rect width="1200" height="3835" fill="white" transform="translate(-922 -2518)"/>
</clipPath>
</defs>
</svg>
