<svg width="155" height="119" viewBox="0 0 155 119" fill="none" xmlns="http://www.w3.org/2000/svg">
<rect width="155" height="119" fill="#E5E5E5"/>
<g clip-path="url(#clip0_0_1)">
<rect width="1200" height="3835" transform="translate(-158 -2520)" fill="white"/>
<g filter="url(#filter0_d_0_1)">
<rect x="-160" y="-226" width="1202" height="756" fill="#F6F8FA"/>
</g>
<g filter="url(#filter1_d_0_1)">
<rect x="-92" y="-81" width="339" height="530" rx="15" fill="white"/>
</g>
<path d="M102.699 75.5647C103.202 77.511 104.397 79.2072 106.06 80.3354C107.724 81.4636 109.742 81.9463 111.736 81.693C113.73 81.4397 115.564 80.4678 116.893 78.9596C118.221 77.4513 118.954 75.5101 118.954 73.5C118.954 71.4899 118.221 69.5487 116.893 68.0404C115.564 66.5322 113.73 65.5603 111.736 65.307C109.742 65.0537 107.724 65.5364 106.06 66.6646C104.397 67.7928 103.202 69.489 102.699 71.4353H98.1719C97.7481 66.3077 95.7304 61.4412 92.4016 57.5181L99.3686 50.5511C101.908 52.358 105.033 53.1449 108.125 52.7558C111.217 52.3667 114.05 50.83 116.062 48.4503C118.074 46.0707 119.119 43.0218 118.989 39.9081C118.859 36.7944 117.564 33.8433 115.36 31.6396C113.157 29.436 110.206 28.1408 107.092 28.0108C103.978 27.8808 100.929 28.9255 98.5497 30.9378C96.17 32.95 94.6333 35.783 94.2442 38.875C93.8551 41.967 94.642 45.0923 96.4489 47.6314L89.4819 54.5984C85.5588 51.2696 80.6923 49.2519 75.5647 48.8281V44.3009C77.511 43.7984 79.2072 42.6033 80.3354 40.9396C81.4636 39.2759 81.9463 37.2578 81.693 35.2637C81.4397 33.2696 80.4678 31.4363 78.9596 30.1075C77.4513 28.7787 75.5101 28.0455 73.5 28.0455C71.4899 28.0455 69.5487 28.7787 68.0404 30.1075C66.5322 31.4363 65.5603 33.2696 65.307 35.2637C65.0537 37.2578 65.5364 39.2759 66.6646 40.9396C67.7928 42.6033 69.489 43.7984 71.4353 44.3009V48.8282C66.3077 49.252 61.4412 51.2697 57.5181 54.5985L50.5511 47.6315C52.358 45.0924 53.1449 41.9671 52.7558 38.8751C52.3667 35.783 50.83 32.9501 48.4503 30.9378C46.0707 28.9256 43.0218 27.8809 39.9081 28.0109C36.7944 28.1409 33.8433 29.4361 31.6396 31.6397C29.436 33.8433 28.1408 36.7945 28.0108 39.9082C27.8808 43.0219 28.9255 46.0707 30.9378 48.4504C32.95 50.83 35.783 52.3667 38.875 52.7558C41.967 53.1449 45.0923 52.358 47.6314 50.5511L54.5984 57.5181C51.2697 61.4413 49.2519 66.3077 48.8281 71.4353H44.3009C43.7984 69.489 42.6033 67.7928 40.9396 66.6646C39.2759 65.5364 37.2578 65.0537 35.2637 65.307C33.2696 65.5603 31.4363 66.5322 30.1075 68.0404C28.7787 69.5487 28.0455 71.4899 28.0455 73.5C28.0455 75.5101 28.7787 77.4513 30.1075 78.9596C31.4363 80.4678 33.2696 81.4397 35.2637 81.693C37.2578 81.9463 39.2759 81.4636 40.9396 80.3354C42.6033 79.2072 43.7984 77.511 44.3009 75.5647H48.8282C49.252 80.6923 51.2697 85.5588 54.5985 89.4819L47.6315 96.4489C45.0924 94.642 41.9671 93.8551 38.8751 94.2442C35.783 94.6333 32.9501 96.17 30.9378 98.5497C28.9256 100.929 27.8809 103.978 28.0109 107.092C28.1409 110.206 29.4361 113.157 31.6397 115.36C33.8433 117.564 36.7945 118.859 39.9082 118.989C43.0219 119.119 46.0707 118.074 48.4504 116.062C50.83 114.05 52.3667 111.217 52.7558 108.125C53.1449 105.033 52.358 101.908 50.5511 99.3686L57.5181 92.4016C61.4413 95.7303 66.3077 97.7481 71.4353 98.1719V102.699C69.489 103.202 67.7928 104.397 66.6646 106.06C65.5364 107.724 65.0537 109.742 65.307 111.736C65.5603 113.73 66.5322 115.564 68.0404 116.893C69.5487 118.221 71.4899 118.954 73.5 118.954C75.5101 118.954 77.4513 118.221 78.9596 116.893C80.4678 115.564 81.4397 113.73 81.693 111.736C81.9463 109.742 81.4636 107.724 80.3354 106.06C79.2072 104.397 77.511 103.202 75.5647 102.699V98.1719C80.6923 97.7481 85.5588 95.7304 89.4819 92.4016L96.4489 99.3686C94.642 101.908 93.8551 105.033 94.2442 108.125C94.6333 111.217 96.17 114.05 98.5497 116.062C100.929 118.074 103.978 119.119 107.092 118.989C110.206 118.859 113.157 117.564 115.36 115.36C117.564 113.157 118.859 110.206 118.989 107.092C119.119 103.978 118.074 100.929 116.062 98.5497C114.05 96.17 111.217 94.6333 108.125 94.2442C105.033 93.8551 101.908 94.642 99.3686 96.4489L92.4016 89.4819C95.7304 85.5588 97.7481 80.6923 98.1719 75.5647H102.699ZM73.5 94.1471C72.9524 94.1471 72.4272 93.9295 72.04 93.5423C71.6528 93.1551 71.4353 92.63 71.4353 92.0824C71.4353 91.5348 71.6528 91.0096 72.04 90.6224C72.4272 90.2352 72.9524 90.0177 73.5 90.0177C77.8792 90.0126 82.0776 88.2708 85.1742 85.1742C88.2708 82.0776 90.0126 77.8792 90.0177 73.5C90.0177 72.9524 90.2352 72.4272 90.6224 72.04C91.0096 71.6528 91.5348 71.4353 92.0824 71.4353C92.63 71.4353 93.1551 71.6528 93.5423 72.04C93.9295 72.4272 94.1471 72.9524 94.1471 73.5C94.141 78.9741 91.9637 84.2222 88.0929 88.0929C84.2222 91.9637 78.9741 94.141 73.5 94.1471Z" fill="#D8F9DA"/>
<path d="M24.5 112.75H30M8 84.625L13.5 86.5L8 84.625ZM13.5 86.5L8 103.375C9.58712 104.592 11.5173 105.25 13.5009 105.25C15.4846 105.25 17.4147 104.592 19.0018 103.375L13.5 86.5ZM13.5 86.5L19 103.375L13.5 86.5ZM13.5 86.5L24.5 82.75L13.5 86.5ZM35.5 86.5L41 84.625L35.5 86.5ZM35.5 86.5L30 103.375C31.5871 104.592 33.5173 105.25 35.5009 105.25C37.4846 105.25 39.4147 104.592 41.0018 103.375L35.5 86.5ZM35.5 86.5L41 103.375L35.5 86.5ZM35.5 86.5L24.5 82.75L35.5 86.5ZM24.5 79V82.75V79ZM24.5 112.75V82.75V112.75ZM24.5 112.75H19H24.5Z" stroke="#1BA548" stroke-width="1.5" stroke-linecap="round" stroke-linejoin="round"/>
<path d="M141.451 87.6228C139.74 85.9434 137.42 85 135.002 85C132.583 85 130.263 85.9434 128.552 87.6228L122.629 93.4746C121.956 94.1389 121.393 94.9015 120.959 95.7354C120.111 96.1581 119.337 96.7094 118.664 97.369L112.67 103.221C110.96 104.902 109.999 107.181 110 109.558C110.001 111.934 110.963 114.213 112.674 115.893C114.385 117.573 116.706 118.516 119.126 118.516C121.546 118.515 123.866 117.57 125.576 115.889L131.528 110.044C132.202 109.382 132.766 108.619 133.198 107.784C134.047 107.357 134.823 106.804 135.5 106.143L141.451 100.298C142.299 99.4662 142.971 98.4782 143.43 97.3907C143.889 96.3033 144.125 95.1377 144.125 93.9606C144.125 92.7834 143.889 91.6178 143.43 90.5304C142.971 89.4429 142.299 88.4549 141.451 87.6228ZM122.629 106.143C123.133 106.635 123.693 107.068 124.299 107.432L120.643 111.016C120.45 111.22 120.218 111.382 119.959 111.495C119.701 111.608 119.422 111.669 119.14 111.674C118.857 111.679 118.576 111.628 118.314 111.524C118.052 111.42 117.814 111.265 117.614 111.069C117.414 110.872 117.256 110.639 117.15 110.381C117.044 110.124 116.992 109.848 116.997 109.57C117.002 109.293 117.064 109.019 117.179 108.765C117.294 108.511 117.46 108.283 117.667 108.094L121.324 104.503C121.691 105.099 122.129 105.649 122.629 106.143ZM130.573 109.066L124.58 114.918C123.132 116.34 121.168 117.139 119.12 117.139C117.072 117.139 115.108 116.34 113.66 114.918C112.212 113.495 111.398 111.566 111.398 109.555C111.398 107.544 112.212 105.615 113.66 104.193L119.618 98.3477C119.787 98.1823 119.969 98.0238 120.152 97.8721C119.746 99.6596 119.907 101.526 120.615 103.221L116.643 107.122C116.003 107.772 115.65 108.643 115.658 109.546C115.666 110.45 116.035 111.314 116.685 111.953C117.336 112.592 118.216 112.955 119.136 112.962C120.056 112.97 120.942 112.623 121.604 111.995L127.541 106.143C128.199 105.497 128.569 104.621 128.569 103.707C128.569 102.793 128.199 101.916 127.541 101.27C127.147 100.882 126.926 100.357 126.926 99.8089C126.926 99.261 127.147 98.7354 127.541 98.3477L128.826 97.0864C129.447 97.4296 130.019 97.8539 130.524 98.3477C131.972 99.7676 132.787 101.694 132.79 103.704C132.793 105.714 131.983 107.642 130.538 109.066H130.573ZM131.563 97.3483C131.062 96.858 130.503 96.4277 129.899 96.0663L133.549 92.4752C133.944 92.0877 134.48 91.8703 135.039 91.8709C135.598 91.8716 136.133 92.0902 136.528 92.4786C136.923 92.8671 137.144 93.3936 137.143 93.9423C137.143 94.491 136.92 95.017 136.524 95.4046L132.875 98.9887C132.487 98.4024 132.035 97.8593 131.528 97.369L131.563 97.3483ZM140.497 99.2989L134.538 105.151C134.371 105.316 134.196 105.472 134.012 105.619C134.411 103.834 134.25 101.971 133.549 100.278L137.521 96.3764C137.847 96.056 138.105 95.6757 138.281 95.2572C138.457 94.8387 138.548 94.3903 138.548 93.9374C138.547 93.4846 138.456 93.0363 138.279 92.6181C138.103 92.1998 137.844 91.8199 137.517 91.4999C137.191 91.1799 136.804 90.9262 136.378 90.7532C135.952 90.5802 135.495 90.4913 135.034 90.4917C134.573 90.492 134.117 90.5815 133.691 90.7551C133.265 90.9287 132.878 91.1829 132.552 91.5033L126.601 97.3483C125.943 97.9946 125.574 98.871 125.574 99.7848C125.574 100.699 125.943 101.575 126.601 102.221C126.797 102.413 126.953 102.642 127.059 102.893C127.166 103.144 127.22 103.414 127.22 103.686C127.22 103.958 127.166 104.228 127.059 104.479C126.953 104.73 126.797 104.959 126.601 105.151L125.324 106.405C124.7 106.068 124.128 105.646 123.625 105.151C122.908 104.447 122.339 103.611 121.951 102.691C121.563 101.77 121.363 100.784 121.363 99.7883C121.363 98.7923 121.563 97.8061 121.951 96.886C122.339 95.9659 122.908 95.1299 123.625 94.4258L129.577 88.5809C131.044 87.2515 132.979 86.5322 134.975 86.574C136.971 86.6158 138.873 87.4154 140.281 88.805C141.69 90.1946 142.496 92.0662 142.529 94.0267C142.563 95.9872 141.822 97.8842 140.461 99.3196L140.497 99.2989Z" fill="#1BA548"/>
<path d="M44.1883 44.7287L43.2026 43.2449C42.3379 41.8833 41.5799 40.4567 40.9355 38.9779C40.2395 37.4657 39.1255 36.1843 37.7251 35.2852C36.3246 34.386 34.6962 33.9067 33.0323 33.9038H26.9474V31.2502C30.4752 31.0277 33.7862 29.4701 36.2079 26.8938C38.6296 24.3174 39.9805 20.9154 39.9863 17.3786C39.9863 17.1479 39.8947 16.9267 39.7317 16.7636C39.5687 16.6005 39.3476 16.5088 39.1171 16.5088C36.4057 16.5079 33.7539 17.3049 31.4919 18.8006C31.6478 13.6727 29.9688 8.65767 26.7571 4.65853C26.6728 4.56125 26.5686 4.48324 26.4515 4.42977C26.3345 4.3763 26.2073 4.34863 26.0786 4.34863C25.9499 4.34863 25.8228 4.3763 25.7057 4.42977C25.5887 4.48324 25.4845 4.56125 25.4002 4.65853C22.1885 8.65767 20.5094 13.6727 20.6653 18.8006C18.403 17.3047 15.751 16.5077 13.0393 16.5088C12.8088 16.5088 12.5877 16.6005 12.4247 16.7636C12.2616 16.9267 12.1701 17.1479 12.1701 17.3786C12.1759 20.9154 13.5268 24.3174 15.9485 26.8938C18.3702 29.4701 21.6811 31.0277 25.2089 31.2502V33.9038H19.1241C17.4602 33.907 15.832 34.3865 14.4316 35.2856C13.0312 36.1847 11.9171 37.4658 11.2208 38.9779C10.5767 40.4568 9.81872 41.8834 8.95381 43.2449L7.96981 44.7287C7.8827 44.8597 7.83273 45.0118 7.82521 45.169C7.8177 45.3261 7.85293 45.4824 7.92714 45.6211C8.00136 45.7597 8.11178 45.8757 8.24665 45.9566C8.38152 46.0374 8.53579 46.0802 8.69303 46.0803H43.4633C43.6207 46.0805 43.7752 46.038 43.9103 45.9572C44.0455 45.8765 44.1561 45.7606 44.2306 45.6218C44.305 45.4831 44.3404 45.3267 44.3329 45.1694C44.3255 45.0121 44.2755 44.8598 44.1883 44.7287ZM38.2156 18.2814C37.9955 21.1895 36.7412 23.9224 34.6802 25.9846C32.6191 28.0468 29.8878 29.3018 26.9813 29.522C27.2015 26.6139 28.4557 23.881 30.5168 21.8188C32.5778 19.7566 35.3092 18.5016 38.2156 18.2814ZM13.9425 18.2814C16.8489 18.5016 19.5803 19.7566 21.6413 21.8188C23.7024 23.881 24.9567 26.6139 25.1768 29.522C22.2703 29.3018 19.539 28.0468 17.4779 25.9846C15.4169 23.9224 14.1626 21.1895 13.9425 18.2814ZM22.509 20.2653C21.9939 15.441 23.2637 10.595 26.0782 6.64417C28.8936 10.5947 30.1643 15.4406 29.65 20.2653C28.057 21.7492 26.8337 23.5859 26.0782 25.6282C25.3238 23.586 24.1013 21.7492 22.509 20.2653ZM10.3151 44.3408C11.2868 42.8759 12.1194 41.3233 12.802 39.7033C13.3589 38.4936 14.2501 37.4686 15.3703 36.7492C16.4905 36.0298 17.793 35.6461 19.1241 35.6433H33.0323C34.3636 35.6455 35.6665 36.029 36.7869 36.7484C37.9074 37.4679 38.7986 38.4932 39.3552 39.7033C40.0356 41.3246 40.8686 42.8774 41.8431 44.3408H10.3151Z" fill="#1BA548"/>
<path d="M35.6394 39.9922H16.5157C16.2852 39.9922 16.0641 40.0838 15.9011 40.2469C15.7381 40.41 15.6465 40.6313 15.6465 40.8619C15.6465 41.0926 15.7381 41.3138 15.9011 41.4769C16.0641 41.6401 16.2852 41.7317 16.5157 41.7317H35.6394C35.87 41.7317 36.0911 41.6401 36.2541 41.4769C36.4171 41.3138 36.5087 41.0926 36.5087 40.8619C36.5087 40.6313 36.4171 40.41 36.2541 40.2469C36.0911 40.0838 35.87 39.9922 35.6394 39.9922Z" fill="#1BA548"/>
<path d="M126.816 28.5689H126.72C127.586 27.7234 128.18 26.639 128.427 25.454C128.673 24.2691 128.561 23.0374 128.105 21.9164C127.649 20.7953 126.869 19.8358 125.865 19.1603C124.862 18.4848 123.679 18.124 122.47 18.124C121.26 18.124 120.078 18.4848 119.074 19.1603C118.07 19.8358 117.29 20.7953 116.834 21.9164C116.378 23.0374 116.266 24.2691 116.513 25.454C116.76 26.639 117.354 27.7234 118.219 28.5689H118.123C117.432 28.5697 116.769 28.8448 116.28 29.334C115.791 29.8232 115.516 30.4864 115.516 31.1782V39.8757C115.518 40.4286 115.695 40.9665 116.023 41.4116C116.351 41.8567 116.812 42.1857 117.339 42.3512L118.13 48.681C118.156 48.8913 118.259 49.0848 118.417 49.2251C118.576 49.3654 118.781 49.4428 118.993 49.4429H125.947C126.159 49.4428 126.363 49.3654 126.522 49.2251C126.681 49.0848 126.783 48.8913 126.809 48.681L127.6 42.3512C128.127 42.1857 128.588 41.8567 128.916 41.4116C129.244 40.9665 129.422 40.4286 129.424 39.8757V31.1782C129.423 30.4864 129.148 29.8232 128.659 29.334C128.17 28.8448 127.507 28.5697 126.816 28.5689ZM118.123 24.2202C118.123 23.3601 118.378 22.5193 118.856 21.8042C119.333 21.089 120.012 20.5316 120.806 20.2025C121.601 19.8733 122.475 19.7872 123.318 19.955C124.161 20.1228 124.935 20.537 125.543 21.1452C126.151 21.7534 126.565 22.5282 126.732 23.3718C126.9 24.2154 126.814 25.0898 126.485 25.8844C126.156 26.679 125.599 27.3582 124.884 27.836C124.17 28.3139 123.329 28.5689 122.47 28.5689C121.317 28.5676 120.213 28.109 119.398 27.2937C118.583 26.4785 118.125 25.3731 118.123 24.2202ZM125.179 47.7034H119.76L119.108 42.4849H125.831L125.179 47.7034ZM127.685 39.8757C127.685 40.1063 127.593 40.3273 127.43 40.4904C127.267 40.6535 127.046 40.7452 126.816 40.7454H118.123C117.893 40.7452 117.672 40.6535 117.509 40.4904C117.346 40.3273 117.254 40.1063 117.254 39.8757V31.1782C117.254 30.9476 117.346 30.7265 117.509 30.5635C117.672 30.4005 117.893 30.3087 118.123 30.3084H126.816C127.046 30.3087 127.267 30.4005 127.43 30.5635C127.593 30.7265 127.685 30.9476 127.685 31.1782V39.8757Z" fill="#1BA548"/>
<path d="M142.462 21.6111H142.366C143.232 20.7656 143.826 19.6811 144.073 18.4962C144.32 17.3112 144.208 16.0795 143.752 14.9585C143.296 13.8374 142.516 12.8778 141.512 12.2023C140.508 11.5268 139.326 11.166 138.116 11.166C136.906 11.166 135.724 11.5268 134.72 12.2023C133.717 12.8778 132.937 13.8374 132.481 14.9585C132.024 16.0795 131.913 17.3112 132.159 18.4962C132.406 19.6811 133 20.7656 133.866 21.6111H133.77C133.078 21.6118 132.416 21.887 131.927 22.3761C131.438 22.8653 131.163 23.5285 131.162 24.2203V32.9178C131.164 33.4707 131.342 34.0087 131.67 34.4537C131.998 34.8988 132.459 35.2279 132.986 35.3933L133.777 41.7231C133.803 41.9334 133.905 42.1269 134.064 42.2672C134.223 42.4074 134.427 42.4849 134.639 42.485H141.593C141.805 42.4849 142.01 42.4074 142.168 42.2672C142.327 42.1269 142.429 41.9334 142.456 41.7231L143.246 35.3933C143.774 35.2279 144.235 34.8988 144.563 34.4537C144.891 34.0087 145.068 33.4707 145.07 32.9178V24.2203C145.069 23.5285 144.794 22.8653 144.306 22.3761C143.817 21.887 143.154 21.6118 142.462 21.6111ZM133.77 17.2623C133.77 16.4022 134.025 15.5615 134.502 14.8463C134.98 14.1312 135.659 13.5738 136.453 13.2446C137.247 12.9155 138.121 12.8294 138.964 12.9972C139.807 13.165 140.582 13.5791 141.189 14.1873C141.797 14.7955 142.211 15.5704 142.379 16.4139C142.547 17.2575 142.461 18.1319 142.132 18.9265C141.803 19.7212 141.246 20.4003 140.531 20.8782C139.816 21.356 138.976 21.6111 138.116 21.6111C136.964 21.6097 135.859 21.1511 135.044 20.3359C134.23 19.5206 133.771 18.4153 133.77 17.2623ZM140.826 40.7455H135.407L134.755 35.527H141.478L140.826 40.7455ZM143.332 32.9178C143.331 33.1484 143.24 33.3695 143.077 33.5326C142.914 33.6956 142.693 33.7873 142.462 33.7875H133.77C133.539 33.7873 133.318 33.6956 133.155 33.5326C132.993 33.3695 132.901 33.1484 132.901 32.9178V24.2203C132.901 23.9897 132.993 23.7686 133.155 23.6056C133.318 23.4425 133.539 23.3508 133.77 23.3506H142.462C142.693 23.3508 142.914 23.4425 143.077 23.6056C143.24 23.7686 143.331 23.9897 143.332 24.2203V32.9178Z" fill="#1BA548"/>
<path d="M111.169 21.6109H111.074C111.939 20.7654 112.533 19.681 112.78 18.496C113.027 17.3111 112.915 16.0794 112.459 14.9584C112.003 13.8373 111.223 12.8778 110.219 12.2023C109.215 11.5268 108.033 11.166 106.823 11.166C105.613 11.166 104.431 11.5268 103.427 12.2023C102.424 12.8778 101.644 13.8373 101.188 14.9584C100.731 16.0794 100.62 17.3111 100.866 18.496C101.113 19.681 101.707 20.7654 102.573 21.6109H102.477C101.786 21.6117 101.123 21.8868 100.634 22.376C100.145 22.8652 99.8699 23.5284 99.8691 24.2202V32.9177C99.8711 33.4706 100.049 34.0085 100.377 34.4536C100.705 34.8987 101.166 35.2277 101.693 35.3932L102.484 41.723C102.51 41.9333 102.612 42.1268 102.771 42.2671C102.93 42.4074 103.134 42.4848 103.346 42.4849H110.3C110.512 42.4848 110.717 42.4074 110.875 42.2671C111.034 42.1268 111.136 41.9333 111.163 41.723L111.953 35.3932C112.481 35.2277 112.942 34.8987 113.27 34.4536C113.598 34.0085 113.775 33.4706 113.777 32.9177V24.2202C113.777 23.5284 113.502 22.8652 113.013 22.376C112.524 21.8868 111.861 21.6117 111.169 21.6109ZM102.477 17.2622C102.477 16.4021 102.732 15.5613 103.209 14.8462C103.687 14.131 104.366 13.5736 105.16 13.2445C105.954 12.9153 106.828 12.8292 107.671 12.997C108.514 13.1648 109.289 13.579 109.896 14.1872C110.504 14.7953 110.918 15.5702 111.086 16.4138C111.254 17.2574 111.168 18.1317 110.839 18.9264C110.51 19.721 109.953 20.4002 109.238 20.878C108.523 21.3559 107.683 21.6109 106.823 21.6109C105.671 21.6096 104.566 21.151 103.751 20.3357C102.937 19.5205 102.478 18.4151 102.477 17.2622ZM109.533 40.7454H104.114L103.462 35.5269H110.185L109.533 40.7454ZM112.039 32.9177C112.038 33.1482 111.947 33.3693 111.784 33.5323C111.621 33.6954 111.4 33.7871 111.169 33.7874H102.477C102.246 33.7871 102.026 33.6954 101.863 33.5323C101.7 33.3693 101.608 33.1482 101.608 32.9177V24.2202C101.608 23.9896 101.7 23.7685 101.863 23.6055C102.026 23.4425 102.246 23.3507 102.477 23.3504H111.169C111.4 23.3507 111.621 23.4425 111.784 23.6055C111.947 23.7685 112.038 23.9896 112.039 24.2202V32.9177Z" fill="#1BA548"/>
</g>
<defs>
<filter id="filter0_d_0_1" x="-164" y="-226" width="1210" height="764" filterUnits="userSpaceOnUse" color-interpolation-filters="sRGB">
<feFlood flood-opacity="0" result="BackgroundImageFix"/>
<feColorMatrix in="SourceAlpha" type="matrix" values="0 0 0 0 0 0 0 0 0 0 0 0 0 0 0 0 0 0 127 0" result="hardAlpha"/>
<feOffset dy="4"/>
<feGaussianBlur stdDeviation="2"/>
<feComposite in2="hardAlpha" operator="out"/>
<feColorMatrix type="matrix" values="0 0 0 0 0 0 0 0 0 0 0 0 0 0 0 0 0 0 0.25 0"/>
<feBlend mode="normal" in2="BackgroundImageFix" result="effect1_dropShadow_0_1"/>
<feBlend mode="normal" in="SourceGraphic" in2="effect1_dropShadow_0_1" result="shape"/>
</filter>
<filter id="filter1_d_0_1" x="-96" y="-81" width="347" height="538" filterUnits="userSpaceOnUse" color-interpolation-filters="sRGB">
<feFlood flood-opacity="0" result="BackgroundImageFix"/>
<feColorMatrix in="SourceAlpha" type="matrix" values="0 0 0 0 0 0 0 0 0 0 0 0 0 0 0 0 0 0 127 0" result="hardAlpha"/>
<feOffset dy="4"/>
<feGaussianBlur stdDeviation="2"/>
<feComposite in2="hardAlpha" operator="out"/>
<feColorMatrix type="matrix" values="0 0 0 0 0 0 0 0 0 0 0 0 0 0 0 0 0 0 0.25 0"/>
<feBlend mode="normal" in2="BackgroundImageFix" result="effect1_dropShadow_0_1"/>
<feBlend mode="normal" in="SourceGraphic" in2="effect1_dropShadow_0_1" result="shape"/>
</filter>
<clipPath id="clip0_0_1">
<rect width="1200" height="3835" fill="white" transform="translate(-158 -2520)"/>
</clipPath>
</defs>
</svg>
