<svg width="36" height="30" viewBox="0 0 36 30" fill="none" xmlns="http://www.w3.org/2000/svg">
<path d="M35.1955 17.7335C34.5943 16.8763 34.5468 16.7431 34.5237 15.6502C34.4839 13.8198 34.1275 13.3123 32.3751 12.7042C31.3507 12.3493 31.2398 12.2647 30.5971 11.4134C29.445 9.88337 28.826 9.76249 27.1426 10.2695C26.7824 10.4276 26.3932 10.5092 25.9998 10.5092C25.6064 10.5092 25.2172 10.4276 24.857 10.2695C23.1663 9.75829 22.5509 9.88862 21.4021 11.413C20.76 12.2649 20.6478 12.3485 19.6242 12.7042C17.854 13.317 17.5144 13.8426 17.4757 15.6497C17.4521 16.7399 17.4075 16.8725 16.8036 17.7335C15.747 19.242 15.7174 19.9097 16.8036 21.4604C17.4041 22.3166 17.4521 22.4497 17.4757 23.5442C17.5143 25.3481 17.8507 25.8744 19.624 26.4897C20.6467 26.8438 20.7595 26.9287 21.4016 27.7805C22.5566 29.3132 23.1769 29.4317 24.857 28.9245C25.2172 28.7667 25.6063 28.6852 25.9996 28.6852C26.3929 28.6852 26.7819 28.7667 27.1422 28.9245C28.8293 29.4336 29.4461 29.3082 30.5971 27.781C31.2391 26.9291 31.3536 26.8441 32.3751 26.4902C34.1452 25.876 34.4852 25.3512 34.5232 23.5442C34.5475 22.4491 34.5938 22.3188 35.1955 21.4609C36.2675 19.9296 36.2688 19.2666 35.1955 17.7335ZM25.9996 25.9586C24.7414 25.9586 23.5115 25.5855 22.4654 24.8865C21.4193 24.1875 20.6039 23.194 20.1224 22.0316C19.641 20.8692 19.515 19.5902 19.7604 18.3562C20.0059 17.1222 20.6118 15.9887 21.5014 15.0991C22.3911 14.2094 23.5246 13.6035 24.7585 13.3581C25.9925 13.1126 27.2716 13.2386 28.434 13.7201C29.5964 14.2016 30.5899 15.0169 31.2889 16.063C31.9879 17.1092 32.3609 18.3391 32.3609 19.5972C32.3591 21.2838 31.6882 22.9007 30.4957 24.0933C29.3031 25.2859 27.6861 25.9567 25.9996 25.9586Z" fill="#D8F9DA"/>
<path d="M25.9995 14.1445C24.9211 14.1445 23.8669 14.4643 22.9702 15.0635C22.0735 15.6626 21.3746 16.5142 20.9619 17.5105C20.5492 18.5068 20.4413 19.6032 20.6516 20.6609C20.862 21.7186 21.3813 22.6901 22.1439 23.4527C22.9065 24.2153 23.878 24.7346 24.9357 24.945C25.9934 25.1553 27.0898 25.0474 28.0861 24.6347C29.0824 24.222 29.934 23.5231 30.5331 22.6264C31.1323 21.7298 31.4521 20.6756 31.4521 19.5971C31.4505 18.1515 30.8755 16.7655 29.8533 15.7433C28.8311 14.7211 27.4451 14.1461 25.9995 14.1445ZM28.2714 21.869H23.7276C23.607 21.869 23.4915 21.8212 23.4063 21.736C23.321 21.6507 23.2732 21.5352 23.2732 21.4147C23.2732 21.2942 23.321 21.1786 23.4063 21.0934C23.4915 21.0082 23.607 20.9603 23.7276 20.9603H28.2714C28.3919 20.9603 28.5075 21.0082 28.5927 21.0934C28.6779 21.1786 28.7258 21.2942 28.7258 21.4147C28.7258 21.5352 28.6779 21.6507 28.5927 21.736C28.5075 21.8212 28.3919 21.869 28.2714 21.869ZM28.2714 18.234H23.7276C23.607 18.234 23.4915 18.1861 23.4063 18.1009C23.321 18.0157 23.2732 17.9001 23.2732 17.7796C23.2732 17.6591 23.321 17.5435 23.4063 17.4583C23.4915 17.3731 23.607 17.3252 23.7276 17.3252H28.2714C28.3919 17.3252 28.5075 17.3731 28.5927 17.4583C28.6779 17.5435 28.7258 17.6591 28.7258 17.7796C28.7258 17.9001 28.6779 18.0157 28.5927 18.1009C28.5075 18.1861 28.3919 18.234 28.2714 18.234Z" fill="#D8F9DA"/>
<path d="M16.6912 10.7729H16.6318C17.168 10.2495 17.536 9.57807 17.6888 8.84449C17.8417 8.11091 17.7724 7.34842 17.4898 6.65441C17.2072 5.9604 16.7242 5.36637 16.1024 4.94818C15.4806 4.53 14.7483 4.30664 13.999 4.30664C13.2496 4.30664 12.5173 4.53 11.8955 4.94818C11.2737 5.36637 10.7907 5.9604 10.5081 6.65441C10.2255 7.34842 10.1562 8.11091 10.3091 8.84449C10.4619 9.57807 10.8299 10.2495 11.3662 10.7729H11.3067C10.8785 10.7733 10.4679 10.9437 10.165 11.2465C9.86221 11.5493 9.69187 11.9599 9.69141 12.3882V17.7726C9.6926 18.1149 9.80273 18.448 10.0058 18.7235C10.2089 18.999 10.4945 19.2028 10.8211 19.3052L11.3109 23.2239C11.3272 23.3541 11.3905 23.4738 11.4889 23.5607C11.5873 23.6475 11.714 23.6955 11.8452 23.6955H16.1527C16.284 23.6955 16.4107 23.6475 16.509 23.5607C16.6074 23.4738 16.6707 23.3541 16.687 23.2239L17.1768 19.3052C17.5034 19.2028 17.789 18.9991 17.9921 18.7235C18.1952 18.448 18.3053 18.1149 18.3065 17.7726V12.3882C18.306 11.9599 18.1357 11.5493 17.8329 11.2465C17.53 10.9437 17.1194 10.7733 16.6912 10.7729ZM11.3067 8.08066C11.3067 7.54819 11.4646 7.02768 11.7605 6.58494C12.0563 6.14221 12.4767 5.79714 12.9687 5.59337C13.4606 5.38961 14.0019 5.33629 14.5242 5.44017C15.0464 5.54405 15.5261 5.80046 15.9026 6.17697C16.2792 6.55349 16.5356 7.03319 16.6394 7.55543C16.7433 8.07767 16.69 8.61899 16.4862 9.11093C16.2825 9.60287 15.9374 10.0233 15.4947 10.3192C15.0519 10.615 14.5314 10.7729 13.999 10.7729C13.2852 10.772 12.6009 10.4881 12.0962 9.98342C11.5915 9.47871 11.3076 8.79442 11.3067 8.08066ZM15.6774 22.6186H12.3205L11.9167 19.388H16.0812L15.6774 22.6186ZM17.2296 17.7726C17.2295 17.9154 17.1727 18.0523 17.0718 18.1532C16.9708 18.2542 16.8339 18.3109 16.6912 18.3111H11.3067C11.164 18.3109 11.0271 18.2542 10.9262 18.1532C10.8252 18.0523 10.7684 17.9154 10.7683 17.7726V12.3882C10.7685 12.2455 10.8253 12.1086 10.9262 12.0077C11.0271 11.9067 11.164 11.8499 11.3067 11.8498H16.6912C16.8339 11.8499 16.9708 11.9067 17.0717 12.0077C17.1726 12.1086 17.2294 12.2455 17.2296 12.3882V17.7726Z" fill="#1BA548"/>
<path d="M26.3845 6.46633H26.325C26.8613 5.94292 27.2293 5.27154 27.3822 4.53795C27.535 3.80436 27.4657 3.04186 27.1832 2.34783C26.9006 1.65381 26.4176 1.05976 25.7958 0.64156C25.174 0.223363 24.4417 0 23.6923 0C22.943 0 22.2106 0.223363 21.5888 0.64156C20.967 1.05976 20.484 1.65381 20.2015 2.34783C19.9189 3.04186 19.8496 3.80436 20.0025 4.53795C20.1553 5.27154 20.5234 5.94292 21.0596 6.46633H21.0001C20.5718 6.4668 20.1612 6.63714 19.8584 6.93997C19.5556 7.2428 19.3852 7.65339 19.3848 8.08166V13.4661C19.386 13.8084 19.4961 14.1414 19.6992 14.417C19.9023 14.6925 20.1878 14.8962 20.5145 14.9986L21.0043 18.9173C21.0206 19.0475 21.0839 19.1673 21.1823 19.2541C21.2807 19.3409 21.4073 19.3889 21.5385 19.389H25.8461C25.9773 19.3889 26.104 19.3409 26.2023 19.2541C26.3007 19.1673 26.364 19.0475 26.3803 18.9173L26.8702 14.9986C27.1968 14.8962 27.4823 14.6925 27.6854 14.417C27.8886 14.1414 27.9987 13.8084 27.9999 13.4661V8.08166C27.9994 7.65339 27.8291 7.2428 27.5262 6.93997C27.2234 6.63714 26.8128 6.4668 26.3845 6.46633ZM21.0001 3.77411C21.0001 3.24164 21.158 2.72113 21.4538 2.2784C21.7496 1.83566 22.1701 1.4906 22.662 1.28683C23.154 1.08306 23.6953 1.02975 24.2175 1.13362C24.7398 1.2375 25.2195 1.49391 25.596 1.87043C25.9725 2.24694 26.2289 2.72665 26.3328 3.24889C26.4367 3.77113 26.3834 4.31244 26.1796 4.80438C25.9758 5.29632 25.6308 5.71678 25.188 6.01261C24.7453 6.30843 24.2248 6.46633 23.6923 6.46633C22.9786 6.46549 22.2943 6.18158 21.7896 5.67687C21.2848 5.17217 21.0009 4.48788 21.0001 3.77411ZM25.3707 18.3121H22.0139L21.6101 15.0814H25.7746L25.3707 18.3121ZM26.923 13.4661C26.9228 13.6089 26.8661 13.7457 26.7651 13.8467C26.6642 13.9476 26.5273 14.0044 26.3845 14.0045H21.0001C20.8573 14.0044 20.7205 13.9476 20.6195 13.8467C20.5186 13.7457 20.4618 13.6089 20.4617 13.4661V8.08166C20.4618 7.9389 20.5186 7.80203 20.6195 7.70108C20.7205 7.60014 20.8573 7.54336 21.0001 7.54322H26.3845C26.5273 7.54336 26.6642 7.60014 26.7651 7.70108C26.8661 7.80203 26.9228 7.9389 26.923 8.08166V13.4661Z" fill="#1BA548"/>
<path d="M6.99977 6.46624H6.94035C7.47657 5.94281 7.84459 5.27143 7.99743 4.53785C8.15026 3.80427 8.08096 3.04178 7.79839 2.34777C7.51582 1.65376 7.03279 1.05973 6.411 0.641541C5.78921 0.223356 5.05688 0 4.30755 0C3.55822 0 2.82589 0.223356 2.2041 0.641541C1.58231 1.05973 1.09928 1.65376 0.816709 2.34777C0.534135 3.04178 0.464839 3.80427 0.617673 4.53785C0.770507 5.27143 1.13853 5.94281 1.67475 6.46624H1.61533C1.18706 6.4667 0.776468 6.63704 0.473636 6.93987C0.170804 7.2427 0.000467474 7.6533 0 8.08157V13.466C0.00119711 13.8083 0.111324 14.1413 0.31443 14.4169C0.517536 14.6924 0.803077 14.8961 1.1297 14.9986L1.61954 18.9172C1.63583 19.0474 1.69911 19.1672 1.79748 19.2541C1.89585 19.3409 2.02255 19.3889 2.15377 19.3889H6.46132C6.59255 19.3889 6.71925 19.3409 6.81762 19.2541C6.91599 19.1672 6.97927 19.0474 6.99556 18.9172L7.4854 14.9985C7.81203 14.8961 8.09757 14.6924 8.30068 14.4169C8.50379 14.1413 8.61391 13.8083 8.6151 13.466V8.08157C8.61463 7.6533 8.44429 7.2427 8.14146 6.93987C7.83863 6.63704 7.42804 6.4667 6.99977 6.46624ZM1.61533 3.77402C1.61533 3.24155 1.77323 2.72104 2.06905 2.2783C2.36488 1.83557 2.78534 1.4905 3.27728 1.28673C3.76922 1.08297 4.31054 1.02965 4.83278 1.13353C5.35501 1.23741 5.83472 1.49382 6.21124 1.87033C6.58775 2.24685 6.84416 2.72655 6.94804 3.24879C7.05192 3.77103 6.9986 4.31235 6.79484 4.80429C6.59107 5.29622 6.246 5.71669 5.80327 6.01252C5.36053 6.30834 4.84002 6.46624 4.30755 6.46624C3.59379 6.4654 2.9095 6.18149 2.40479 5.67678C1.90008 5.17207 1.61617 4.48778 1.61533 3.77402ZM5.98598 18.312H2.62912L2.22529 15.0813H6.38981L5.98598 18.312ZM7.53821 13.466C7.53803 13.6088 7.48124 13.7456 7.3803 13.8465C7.27936 13.9475 7.14252 14.0043 6.99977 14.0044H1.61533C1.47258 14.0043 1.33574 13.9475 1.2348 13.8465C1.13386 13.7456 1.07707 13.6088 1.07689 13.466V8.08157C1.07707 7.93882 1.13386 7.80197 1.2348 7.70104C1.33574 7.6001 1.47258 7.54331 1.61533 7.54312H6.99977C7.14252 7.54331 7.27936 7.6001 7.3803 7.70104C7.48124 7.80197 7.53803 7.93882 7.53821 8.08157V13.466Z" fill="#1BA548"/>
</svg>
