<svg width="34" height="36" viewBox="0 0 34 36" fill="none" xmlns="http://www.w3.org/2000/svg">
<path d="M24 16C22.0222 16 20.0888 16.5865 18.4443 17.6853C16.7998 18.7841 15.5181 20.3459 14.7612 22.1732C14.0043 24.0004 13.8063 26.0111 14.1922 27.9509C14.578 29.8907 15.5304 31.6725 16.9289 33.0711C18.3275 34.4696 20.1093 35.422 22.0491 35.8079C23.9889 36.1937 25.9996 35.9957 27.8268 35.2388C29.6541 34.4819 31.2159 33.2002 32.3147 31.5557C33.4135 29.9112 34 27.9778 34 26C33.997 23.3488 32.9425 20.807 31.0677 18.9323C29.193 17.0575 26.6512 16.003 24 16ZM27.4453 30.1863L24.5 32.2252V33.5C24.5 33.6326 24.4473 33.7598 24.3536 33.8536C24.2598 33.9473 24.1326 34 24 34C23.8674 34 23.7402 33.9473 23.6464 33.8536C23.5527 33.7598 23.5 33.6326 23.5 33.5V32.2252L20.5547 30.1863C20.0379 29.829 19.599 29.3705 19.2647 28.8385C18.9304 28.3066 18.7076 27.7122 18.6099 27.0916C18.5122 26.471 18.5416 25.8369 18.6963 25.228C18.8509 24.619 19.1277 24.0478 19.5098 23.5491L23.603 18.1963C23.6516 18.1382 23.7123 18.0914 23.7809 18.0593C23.8495 18.0272 23.9243 18.0106 24 18.0106C24.0757 18.0106 24.1505 18.0272 24.2191 18.0593C24.2877 18.0914 24.3484 18.1382 24.397 18.1963L28.4902 23.5491C28.8723 24.0478 29.1491 24.619 29.3038 25.228C29.4584 25.8369 29.4878 26.471 29.3901 27.0916C29.2924 27.7122 29.0696 28.3066 28.7353 28.8385C28.401 29.3705 27.9621 29.829 27.4453 30.1863Z" fill="#D8F9DA"/>
<path d="M24.0009 19.3223L20.3046 24.1558C20.005 24.5472 19.7879 24.9953 19.6666 25.4731C19.5453 25.9509 19.5223 26.4483 19.599 26.9353C19.6757 27.4222 19.8505 27.8885 20.1128 28.3059C20.3751 28.7232 20.7195 29.083 21.125 29.3633L23.5009 31.0081V22.4993C23.5009 22.3667 23.5536 22.2395 23.6474 22.1457C23.7412 22.0519 23.8683 21.9993 24.0009 21.9993C24.1335 21.9993 24.2607 22.0519 24.3545 22.1457C24.4483 22.2395 24.5009 22.3667 24.5009 22.4993V31.0081L26.8769 29.3633C27.2824 29.083 27.6268 28.7232 27.8891 28.3059C28.1514 27.8885 28.3262 27.4222 28.4029 26.9353C28.4796 26.4483 28.4566 25.9509 28.3353 25.4731C28.214 24.9953 27.9969 24.5471 27.6973 24.1558L24.0009 19.3223Z" fill="#D8F9DA"/>
<path d="M27.8883 30.9508L27.1324 29.8135C26.4692 28.7699 25.8879 27.6764 25.3937 26.5429C24.86 25.3838 24.0056 24.4016 22.9315 23.7125C21.8575 23.0233 20.6087 22.6559 19.3325 22.6537H14.666V20.6197C17.3715 20.4492 19.9107 19.2553 21.768 17.2806C23.6253 15.3058 24.6613 12.6982 24.6658 9.98731C24.6658 9.8105 24.5955 9.64094 24.4705 9.51592C24.3455 9.3909 24.1759 9.32066 23.9991 9.32066C21.9197 9.31993 19.886 9.93082 18.1512 11.0773C18.2708 7.14682 16.9831 3.30282 14.52 0.237535C14.4553 0.162972 14.3754 0.103174 14.2857 0.062192C14.1959 0.0212096 14.0984 0 13.9997 0C13.901 0 13.8035 0.0212096 13.7137 0.062192C13.6239 0.103174 13.544 0.162972 13.4793 0.237535C11.0162 3.30282 9.72853 7.14682 9.8481 11.0773C8.11312 9.93069 6.07918 9.3198 3.99956 9.32066C3.82276 9.32066 3.65319 9.3909 3.52817 9.51592C3.40315 9.64094 3.33291 9.8105 3.33291 9.98731C3.33737 12.6982 4.37341 15.3058 6.23067 17.2806C8.08792 19.2553 10.6271 20.4492 13.3327 20.6197V22.6537H8.66612C7.39005 22.6562 6.14131 23.0236 5.06732 23.7128C3.99333 24.4019 3.13892 25.3839 2.60493 26.5429C2.11091 27.6765 1.52962 28.77 0.866302 29.8135L0.111653 30.9508C0.044848 31.0512 0.00652362 31.1678 0.000761628 31.2883C-0.00500037 31.4087 0.0220159 31.5285 0.078933 31.6348C0.13585 31.7411 0.220536 31.83 0.323972 31.892C0.427408 31.954 0.54572 31.9867 0.666307 31.9868H27.3324C27.4531 31.987 27.5715 31.9544 27.6752 31.8925C27.7788 31.8306 27.8637 31.7418 27.9208 31.6354C27.9778 31.529 28.005 31.4092 27.9993 31.2886C27.9935 31.1681 27.9552 31.0513 27.8883 30.9508ZM23.3078 10.6793C23.139 12.9083 22.177 15.003 20.5964 16.5837C19.0157 18.1644 16.921 19.1263 14.692 19.2951C14.8608 17.0661 15.8227 14.9714 17.4034 13.3907C18.984 11.81 21.0788 10.8481 23.3078 10.6793ZM4.69221 10.6793C6.92122 10.8481 9.01595 11.81 10.5966 13.3907C12.1773 14.9714 13.1392 17.0661 13.308 19.2951C11.079 19.1263 8.98428 18.1644 7.40362 16.5837C5.82296 15.003 4.86102 12.9083 4.69221 10.6793ZM11.2621 12.1999C10.867 8.50214 11.8409 4.7878 13.9993 1.7595C16.1585 4.78753 17.1331 8.50189 16.7386 12.1999C15.5169 13.3373 14.5788 14.7451 13.9993 16.3105C13.4208 14.7452 12.4832 13.3373 11.2621 12.1999ZM1.91028 30.6535C2.65549 29.5307 3.29403 28.3407 3.81757 27.0989C4.24468 26.1717 4.92812 25.386 5.78724 24.8346C6.64635 24.2832 7.64528 23.9891 8.66612 23.987H19.3325C20.3536 23.9887 21.3528 24.2826 22.2121 24.834C23.0714 25.3855 23.7549 26.1714 24.1818 27.0989C24.7035 28.3416 25.3424 29.5319 26.0897 30.6535H1.91028Z" fill="#1BA548"/>
<path d="M21.333 27.3203H6.66665C6.48984 27.3203 6.32028 27.3905 6.19526 27.5156C6.07024 27.6406 6 27.8102 6 27.987C6 28.1638 6.07024 28.3333 6.19526 28.4584C6.32028 28.5834 6.48984 28.6536 6.66665 28.6536H21.333C21.5098 28.6536 21.6794 28.5834 21.8044 28.4584C21.9294 28.3333 21.9996 28.1638 21.9996 27.987C21.9996 27.8102 21.9294 27.6406 21.8044 27.5156C21.6794 27.3905 21.5098 27.3203 21.333 27.3203Z" fill="#1BA548"/>
</svg>
