<svg width="165" height="165" viewBox="0 0 165 165" fill="none" xmlns="http://www.w3.org/2000/svg">
<rect width="165" height="165" fill="#E5E5E5"/>
<g clip-path="url(#clip0_0_1)">
<rect width="1200" height="3835" transform="translate(-506 -644)" fill="white"/>
<path d="M154.688 97.9688H134.062C132.011 97.9688 130.044 98.7836 128.593 100.234C127.143 101.685 126.328 103.652 126.328 105.703V149.531H121.172V74.7656C121.172 72.7143 120.357 70.7471 118.907 69.2966C117.456 67.8461 115.489 67.0313 113.438 67.0312H92.8125C90.7612 67.0313 88.794 67.8461 87.3435 69.2966C85.893 70.7471 85.0781 72.7143 85.0781 74.7656V149.531H79.9219V116.016C79.9219 113.964 79.107 111.997 77.6565 110.547C76.2061 109.096 74.2388 108.281 72.1875 108.281H51.5625C49.5112 108.281 47.5439 109.096 46.0935 110.547C44.643 111.997 43.8281 113.964 43.8281 116.016V152.109C43.8281 152.793 44.0997 153.449 44.5832 153.932C45.0667 154.416 45.7225 154.688 46.4062 154.688H159.844C160.528 154.688 161.183 154.416 161.667 153.932C162.15 153.449 162.422 152.793 162.422 152.109V105.703C162.422 103.652 161.607 101.685 160.157 100.234C158.706 98.7836 156.739 97.9688 154.688 97.9688Z" fill="#D8F9DA"/>
<path d="M76.6991 10.3127C68.9238 10.3222 61.291 12.4 54.5837 16.3329C47.8764 20.2658 42.3361 25.9122 38.5311 32.6929C34.7262 39.4736 32.7936 47.1444 32.9315 54.9185C33.0695 62.6926 35.2731 70.29 39.3163 76.9314L5.59441 110.653C3.65936 112.588 2.57227 115.213 2.57227 117.949C2.57227 120.686 3.65936 123.31 5.59441 125.246C7.52945 127.181 10.1539 128.268 12.8905 128.268C15.6271 128.268 18.2515 127.181 20.1866 125.246L53.9085 91.4979C59.6854 95.0423 66.2057 97.1986 72.9568 97.7974C79.7079 98.3961 86.5059 97.421 92.8165 94.9487C99.1271 92.4763 104.778 88.5741 109.326 83.5487C113.874 78.5233 117.194 72.5117 119.026 65.9863C120.858 59.461 121.151 52.5997 119.883 45.9417C118.615 39.2837 115.821 33.0105 111.719 27.6151C107.617 22.2197 102.319 17.8492 96.243 14.8469C90.1666 11.8447 83.4767 10.2926 76.6991 10.3127ZM16.5257 121.585C16.0468 122.064 15.4781 122.444 14.8521 122.704C14.2262 122.963 13.5552 123.097 12.8776 123.097C12.2 123.097 11.529 122.963 10.9031 122.704C10.2771 122.444 9.70844 122.064 9.22956 121.585C8.75015 121.106 8.36983 120.537 8.11035 119.911C7.85086 119.285 7.7173 118.614 7.7173 117.937C7.7173 117.259 7.85086 116.588 8.11035 115.962C8.36983 115.336 8.75015 114.767 9.22956 114.288L42.3069 81.2369C44.4471 83.9443 46.8956 86.3928 49.603 88.533L16.5257 121.585ZM76.6991 92.8127C69.0505 92.8127 61.5737 90.5446 55.2141 86.2953C48.8546 82.046 43.8979 76.0063 40.9709 68.9399C38.044 61.8735 37.2781 54.0979 38.7703 46.5963C40.2624 39.0947 43.9456 32.204 49.3539 26.7957C54.7623 21.3873 61.653 17.7042 69.1546 16.212C76.6562 14.7198 84.4318 15.4857 91.4982 18.4127C98.5645 21.3396 104.604 26.2963 108.854 32.6559C113.103 39.0154 115.371 46.4922 115.371 54.1408C115.371 64.3972 111.297 74.2336 104.044 81.486C96.7919 88.7383 86.9555 92.8127 76.6991 92.8127Z" fill="#1BA548"/>
<path d="M76.6992 20.625C70.0705 20.625 63.5906 22.5907 58.079 26.2734C52.5673 29.9561 48.2716 35.1906 45.7348 41.3148C43.1981 47.4389 42.5344 54.1778 43.8276 60.6792C45.1208 67.1806 48.3129 73.1525 53.0001 77.8398C57.6874 82.527 63.6593 85.7191 70.1607 87.0123C76.6621 88.3055 83.4009 87.6417 89.5251 85.105C95.6493 82.5683 100.884 78.2725 104.566 72.7609C108.249 67.2493 110.215 60.7694 110.215 54.1406C110.215 45.2517 106.684 36.7269 100.398 30.4415C94.113 24.1561 85.5881 20.625 76.6992 20.625ZM76.6992 82.5C71.0903 82.5 65.6073 80.8368 60.9436 77.7206C56.2799 74.6044 52.645 70.1753 50.4986 64.9933C48.3521 59.8113 47.7905 54.1092 48.8848 48.608C49.979 43.1068 52.68 38.0536 56.6461 34.0875C60.6123 30.1214 65.6654 27.4204 71.1666 26.3262C76.6678 25.2319 82.3699 25.7935 87.5519 27.94C92.7339 30.0864 97.163 33.7213 100.279 38.385C103.395 43.0487 105.059 48.5317 105.059 54.1406C105.059 61.662 102.071 68.8753 96.7523 74.1937C91.4339 79.5122 84.2206 82.5 76.6992 82.5Z" fill="#1BA548"/>
<path d="M97.9696 46.4065L87.6571 43.8284C86.9733 43.6574 86.2497 43.7651 85.6453 44.1277C85.0409 44.4904 84.6054 45.0782 84.4344 45.762C84.2635 46.4457 84.3712 47.1694 84.7338 47.7738C85.0964 48.3781 85.6843 48.8137 86.368 48.9846L91.7563 50.3253L82.011 58.4721L70.7704 47.2315C70.3208 46.7855 69.7227 46.5207 69.0903 46.4874C68.4579 46.4541 67.8354 46.6547 67.3415 47.051L54.4509 57.3635C53.9415 57.7985 53.6214 58.4146 53.5583 59.0815C53.4953 59.7483 53.6942 60.4135 54.1131 60.9363C54.5319 61.459 55.1378 61.7982 55.8023 61.882C56.4669 61.9658 57.138 61.7877 57.6735 61.3854L68.7594 52.5167L79.9227 63.7057C80.3784 64.1622 80.9886 64.4313 81.6329 64.4599C82.2772 64.4885 82.9088 64.2746 83.4032 63.8604L94.6438 54.5018V59.2971C94.6438 59.9809 94.9154 60.6367 95.3989 61.1201C95.8824 61.6036 96.5382 61.8753 97.2219 61.8753C97.9057 61.8753 98.5615 61.6036 99.0449 61.1201C99.5284 60.6367 99.8001 59.9809 99.8001 59.2971V48.9846C99.8245 48.4127 99.6579 47.8488 99.3264 47.382C98.995 46.9152 98.5176 46.572 97.9696 46.4065Z" fill="#1BA548"/>
</g>
<defs>
<clipPath id="clip0_0_1">
<rect width="1200" height="3835" fill="white" transform="translate(-506 -644)"/>
</clipPath>
</defs>
</svg>
