<svg width="31" height="32" viewBox="0 0 31 32" fill="none" xmlns="http://www.w3.org/2000/svg">
<path d="M27.4174 22.4323C27.5278 22.8601 27.7905 23.2329 28.1561 23.4808C28.5218 23.7288 28.9653 23.8348 29.4036 23.7792C29.8418 23.7235 30.2448 23.5099 30.5368 23.1784C30.8289 22.8469 30.99 22.4203 30.99 21.9785C30.99 21.5367 30.8289 21.1101 30.5368 20.7786C30.2448 20.4471 29.8418 20.2335 29.4036 20.1779C28.9653 20.1222 28.5218 20.2283 28.1561 20.4762C27.7905 20.7242 27.5278 21.097 27.4174 21.5247H26.4224C26.3292 20.3978 25.8858 19.3282 25.1542 18.466L26.6854 16.9348C27.2434 17.3319 27.9303 17.5049 28.6099 17.4193C29.2895 17.3338 29.9121 16.9961 30.3543 16.4731C30.7966 15.9501 31.0262 15.28 30.9976 14.5957C30.969 13.9114 30.6844 13.2628 30.2001 12.7784C29.7158 12.2941 29.0672 12.0095 28.3828 11.9809C27.6985 11.9523 27.0284 12.1819 26.5054 12.6242C25.9824 13.0664 25.6447 13.6891 25.5592 14.3686C25.4737 15.0482 25.6466 15.7351 26.0437 16.2931L24.5125 17.8243C23.6503 17.0927 22.5807 16.6493 21.4538 16.5561V15.5611C21.8815 15.4507 22.2543 15.188 22.5023 14.8224C22.7502 14.4567 22.8563 14.0132 22.8007 13.5749C22.745 13.1367 22.5314 12.7337 22.1999 12.4417C21.8684 12.1496 21.4418 11.9885 21 11.9885C20.5582 11.9885 20.1316 12.1496 19.8001 12.4417C19.4686 12.7337 19.255 13.1367 19.1993 13.5749C19.1437 14.0132 19.2498 14.4567 19.4977 14.8224C19.7457 15.188 20.1185 15.4507 20.5462 15.5611V16.5561C19.4193 16.6493 18.3497 17.0927 17.4875 17.8243L15.9563 16.2931C16.3534 15.7351 16.5263 15.0482 16.4408 14.3686C16.3553 13.6891 16.0176 13.0664 15.4946 12.6242C14.9716 12.1819 14.3015 11.9523 13.6172 11.9809C12.9328 12.0095 12.2842 12.2941 11.7999 12.7785C11.3156 13.2628 11.031 13.9114 11.0024 14.5957C10.9738 15.28 11.2034 15.9501 11.6457 16.4731C12.0879 16.9961 12.7105 17.3338 13.3901 17.4194C14.0697 17.5049 14.7566 17.3319 15.3146 16.9348L16.8458 18.466C16.1142 19.3282 15.6708 20.3978 15.5776 21.5247H14.5826C14.4722 21.097 14.2095 20.7242 13.8439 20.4762C13.4782 20.2283 13.0347 20.1222 12.5964 20.1779C12.1582 20.2335 11.7552 20.4471 11.4632 20.7786C11.1711 21.1101 11.01 21.5367 11.01 21.9785C11.01 22.4203 11.1711 22.8469 11.4632 23.1784C11.7552 23.5099 12.1582 23.7235 12.5964 23.7792C13.0347 23.8348 13.4782 23.7288 13.8439 23.4808C14.2095 23.2329 14.4722 22.8601 14.5826 22.4323H15.5776C15.6708 23.5592 16.1142 24.6288 16.8458 25.491L15.3146 27.0222C14.7566 26.6251 14.0697 26.4522 13.3901 26.5377C12.7106 26.6232 12.0879 26.9609 11.6457 27.4839C11.2034 28.0069 10.9738 28.677 11.0024 29.3613C11.031 30.0457 11.3156 30.6943 11.7999 31.1786C12.2842 31.6629 12.9329 31.9476 13.6172 31.9761C14.3015 32.0047 14.9716 31.7751 15.4946 31.3328C16.0176 30.8906 16.3553 30.268 16.4408 29.5884C16.5264 28.9088 16.3534 28.222 15.9563 27.6639L17.4875 26.1327C18.3497 26.8643 19.4193 27.3078 20.5462 27.4009V28.3959C20.1185 28.5063 19.7457 28.769 19.4977 29.1347C19.2498 29.5003 19.1437 29.9438 19.1993 30.3821C19.255 30.8204 19.4686 31.2233 19.8001 31.5153C20.1316 31.8074 20.5582 31.9685 21 31.9685C21.4418 31.9685 21.8684 31.8074 22.1999 31.5153C22.5314 31.2233 22.745 30.8204 22.8007 30.3821C22.8563 29.9438 22.7502 29.5003 22.5023 29.1347C22.2543 28.769 21.8815 28.5063 21.4538 28.3959V27.4009C22.5807 27.3078 23.6503 26.8643 24.5125 26.1327L26.0437 27.6639C25.6466 28.222 25.4737 28.9088 25.5592 29.5884C25.6447 30.268 25.9824 30.8906 26.5054 31.3328C27.0284 31.7751 27.6985 32.0047 28.3828 31.9761C29.0672 31.9476 29.7158 31.6629 30.2001 31.1786C30.6844 30.6943 30.969 30.0457 30.9976 29.3613C31.0262 28.677 30.7966 28.0069 30.3543 27.4839C29.9121 26.9609 29.2895 26.6232 28.6099 26.5377C27.9303 26.4522 27.2434 26.6251 26.6854 27.0222L25.1542 25.491C25.8858 24.6288 26.3292 23.5592 26.4224 22.4323H27.4174ZM21 26.5163C20.8796 26.5163 20.7642 26.4685 20.6791 26.3834C20.594 26.2983 20.5462 26.1829 20.5462 26.0625C20.5462 25.9422 20.594 25.8268 20.6791 25.7417C20.7642 25.6566 20.8796 25.6088 21 25.6088C21.9625 25.6077 22.8852 25.2248 23.5658 24.5443C24.2463 23.8637 24.6292 22.941 24.6303 21.9785C24.6303 21.8582 24.6781 21.7427 24.7632 21.6576C24.8483 21.5725 24.9637 21.5247 25.084 21.5247C25.2044 21.5247 25.3198 21.5725 25.4049 21.6576C25.49 21.7427 25.5378 21.8582 25.5378 21.9785C25.5365 23.1816 25.058 24.335 24.2072 25.1858C23.3565 26.0365 22.2031 26.515 21 26.5163Z" fill="#D8F9DA"/>
<path d="M25.806 2.19117C24.4022 0.788147 22.4988 0 20.5141 0C18.5294 0 16.6259 0.788147 15.2222 2.19117L10.3622 7.07997C9.81042 7.63489 9.3481 8.27204 8.99169 8.9687C8.29623 9.32184 7.66078 9.7824 7.10872 10.3334L2.19113 15.2222C0.787632 16.6265 -0.00053969 18.5308 2.77261e-07 20.5161C0.000540244 22.5015 0.789748 24.4054 2.19401 25.8089C3.59827 27.2124 5.50255 28.0005 7.48793 28C9.47331 27.9995 11.3772 27.2103 12.7807 25.806L17.6637 20.9229C18.2173 20.3696 18.6798 19.7321 19.0342 19.0342C19.7307 18.6777 20.3679 18.2153 20.9229 17.6637L25.806 12.7807C26.5015 12.0855 27.0533 11.2601 27.4298 10.3516C27.8062 9.44311 28 8.46934 28 7.48593C28 6.50252 27.8062 5.52875 27.4298 4.62026C27.0533 3.71176 26.5015 2.88634 25.806 2.19117ZM10.3622 17.6637C10.7755 18.0748 11.2355 18.4362 11.7326 18.7405L8.73257 21.7349C8.57442 21.9046 8.3837 22.0407 8.1718 22.1351C7.95989 22.2296 7.73114 22.2803 7.49919 22.2844C7.26724 22.2885 7.03684 22.2458 6.82174 22.159C6.60663 22.0721 6.41123 21.9428 6.24719 21.7787C6.08315 21.6147 5.95383 21.4193 5.86695 21.2042C5.78007 20.9891 5.7374 20.7587 5.74149 20.5267C5.74558 20.2948 5.79635 20.066 5.89077 19.8541C5.98519 19.6422 6.12132 19.4515 6.29104 19.2933L9.29112 16.2933C9.59257 16.7909 9.95211 17.251 10.3622 17.6637ZM16.8806 20.1053L11.963 24.9941C10.7748 26.1822 9.16333 26.8497 7.48301 26.8497C5.8027 26.8497 4.19121 26.1822 3.00305 24.9941C1.81489 23.8059 1.14739 22.1944 1.14739 20.5141C1.14739 18.8338 1.81489 17.2223 3.00305 16.0341L7.89185 11.1511C8.03005 11.0129 8.17977 10.8805 8.32949 10.7538C7.99655 12.2471 8.12919 13.8066 8.70953 15.2222L5.45033 18.4814C4.92587 19.0244 4.63567 19.7517 4.64223 20.5066C4.64879 21.2615 4.95158 21.9837 5.4854 22.5175C6.01922 23.0513 6.74135 23.3541 7.49625 23.3607C8.25116 23.3672 8.97844 23.077 9.52146 22.5525L14.393 17.6637C14.9327 17.1238 15.236 16.3916 15.236 15.6282C15.236 14.8647 14.9327 14.1325 14.393 13.5926C14.0695 13.2687 13.8878 12.8296 13.8878 12.3719C13.8878 11.9141 14.0695 11.475 14.393 11.1511L15.4468 10.0973C15.9567 10.384 16.4255 10.7385 16.8403 11.1511C18.0286 12.3373 18.6973 13.9468 18.6994 15.6258C18.7016 17.3048 18.037 18.916 16.8518 20.1053H16.8806ZM17.6925 10.3161C17.2814 9.90657 16.8233 9.54705 16.3278 9.24509L19.3221 6.24502C19.6466 5.92125 20.0865 5.73966 20.5449 5.7402C21.0033 5.74074 21.4427 5.92337 21.7665 6.24789C22.0903 6.57242 22.2719 7.01228 22.2713 7.47069C22.2708 7.92911 22.0882 8.36853 21.7636 8.6923L18.7693 11.6866C18.4509 11.1968 18.0802 10.7431 17.6637 10.3334L17.6925 10.3161ZM25.0228 11.9457L20.134 16.8345C19.9971 16.9726 19.8529 17.1033 19.7021 17.2261C20.0298 15.7344 19.8973 14.1783 19.3221 12.7634L22.5813 9.50422C22.8486 9.23653 23.0606 8.91881 23.2051 8.56919C23.3496 8.21958 23.4239 7.84493 23.4236 7.46662C23.4233 7.08831 23.3486 6.71377 23.2036 6.36436C23.0585 6.01495 22.8461 5.69753 22.5784 5.43021C22.3107 5.1629 21.993 4.95093 21.6434 4.80641C21.2938 4.66188 20.9191 4.58763 20.5408 4.5879C20.1625 4.58817 19.788 4.66295 19.4386 4.80796C19.0892 4.95298 18.7717 5.1654 18.5044 5.43309L13.6214 10.3161C13.0816 10.8561 12.7784 11.5883 12.7784 12.3517C12.7784 13.1152 13.0816 13.8473 13.6214 14.3873C13.7824 14.5478 13.9102 14.7385 13.9974 14.9484C14.0846 15.1584 14.1295 15.3835 14.1295 15.6109C14.1295 15.8383 14.0846 16.0634 13.9974 16.2734C13.9102 16.4834 13.7824 16.6741 13.6214 16.8345L12.5734 17.8826C12.0617 17.6008 11.5925 17.2479 11.1798 16.8345C10.5914 16.2463 10.1245 15.5479 9.80601 14.7792C9.48751 14.0106 9.32357 13.1866 9.32357 12.3546C9.32357 11.5225 9.48751 10.6986 9.80601 9.92992C10.1245 9.16124 10.5914 8.46284 11.1798 7.87462L16.0629 2.99157C17.267 1.88097 18.8546 1.28005 20.4923 1.31497C22.1301 1.34989 23.6906 2.01793 24.8463 3.17885C26.002 4.33977 26.663 5.90329 26.6906 7.54116C26.7181 9.17904 26.1101 10.7639 24.994 11.963L25.0228 11.9457Z" fill="#1BA548"/>
</svg>
