<svg width="165" height="165" viewBox="0 0 165 165" fill="none" xmlns="http://www.w3.org/2000/svg">
<rect width="165" height="165" fill="#E5E5E5"/>
<g clip-path="url(#clip0_0_1)">
<rect width="1200" height="3835" transform="translate(-864 -640)" fill="white"/>
<g clip-path="url(#clip1_0_1)">
<path d="M106.566 103.372V131.626H134.819C134.199 124.34 131.024 117.508 125.854 112.338C120.684 107.168 113.852 103.992 106.566 103.372Z" fill="#D8F9DA"/>
<path d="M149.647 73.0768L129.022 52.4518C128.53 51.9768 127.875 51.7091 127.191 51.7041H65.3164C63.267 51.7101 61.3032 52.5269 59.854 53.9761C58.4048 55.4252 57.588 57.389 57.582 59.4385V157.407C57.588 159.457 58.4048 161.42 59.854 162.87C61.3032 164.319 63.267 165.136 65.3164 165.142H142.66C144.71 165.136 146.673 164.319 148.123 162.87C149.572 161.42 150.389 159.457 150.395 157.407V74.9072C150.389 74.2237 150.122 73.5683 149.647 73.0768ZM129.77 60.4955L141.603 72.3291H129.77V60.4955ZM67.8945 62.0166H119.457C120.141 62.0166 120.797 62.2882 121.28 62.7717C121.764 63.2552 122.035 63.911 122.035 64.5947C122.035 65.2785 121.764 65.9342 121.28 66.4177C120.797 66.9012 120.141 67.1729 119.457 67.1729H67.8945C67.2108 67.1729 66.555 66.9012 66.0715 66.4177C65.588 65.9342 65.3164 65.2785 65.3164 64.5947C65.3164 63.911 65.588 63.2552 66.0715 62.7717C66.555 62.2882 67.2108 62.0166 67.8945 62.0166ZM67.8945 74.9072H119.457C120.141 74.9072 120.797 75.1789 121.28 75.6623C121.764 76.1458 122.035 76.8016 122.035 77.4854C122.035 78.1691 121.764 78.8249 121.28 79.3084C120.797 79.7919 120.141 80.0635 119.457 80.0635H67.8945C67.2108 80.0635 66.555 79.7919 66.0715 79.3084C65.588 78.8249 65.3164 78.1691 65.3164 77.4854C65.3164 76.8016 65.588 76.1458 66.0715 75.6623C66.555 75.1789 67.2108 74.9072 67.8945 74.9072ZM137.504 136.782H129.639C129.151 141.637 127.296 146.254 124.288 150.096C121.281 153.938 117.245 156.848 112.649 158.487C108.053 160.126 103.087 160.428 98.3267 159.356C93.5665 158.285 89.2082 155.885 85.758 152.435C82.3079 148.984 79.9076 144.626 78.8362 139.866C77.7648 135.106 78.0663 130.139 79.7055 125.544C81.3447 120.948 84.2545 116.912 88.0966 113.904C91.9387 110.897 96.5554 109.041 101.41 108.554V100.688C101.41 100.35 101.477 100.015 101.606 99.7018C101.736 99.3889 101.926 99.1047 102.165 98.8653C102.404 98.6259 102.689 98.436 103.002 98.3064C103.314 98.1769 103.65 98.1103 103.988 98.1104C113.558 98.1211 122.732 101.927 129.499 108.694C136.265 115.46 140.071 124.635 140.082 134.204C140.082 134.543 140.015 134.878 139.886 135.191C139.756 135.504 139.567 135.788 139.327 136.027C139.088 136.267 138.803 136.457 138.491 136.586C138.178 136.716 137.842 136.782 137.504 136.782ZM140.082 92.9541H67.8945C67.2108 92.9541 66.555 92.6825 66.0715 92.199C65.588 91.7155 65.3164 91.0597 65.3164 90.376C65.3164 89.6922 65.588 89.0365 66.0715 88.553C66.555 88.0695 67.2108 87.7979 67.8945 87.7979H140.082C140.766 87.7979 141.422 88.0695 141.905 88.553C142.389 89.0365 142.66 89.6922 142.66 90.376C142.66 91.0597 142.389 91.7155 141.905 92.199C141.422 92.6825 140.766 92.9541 140.082 92.9541Z" fill="#D8F9DA"/>
<path d="M101.411 134.204V113.74C97.5819 114.223 93.9651 115.77 90.9718 118.206C87.9784 120.642 85.7286 123.869 84.478 127.52C83.2275 131.172 83.0264 135.1 83.8977 138.86C84.769 142.62 86.6776 146.06 89.4067 148.788C92.1357 151.517 95.5757 153.426 99.3354 154.297C103.095 155.168 107.024 154.967 110.675 153.716C114.326 152.465 117.553 150.215 119.989 147.222C122.425 144.228 123.972 140.611 124.454 136.782H103.989C103.65 136.782 103.315 136.716 103.002 136.586C102.69 136.457 102.405 136.267 102.166 136.027C101.926 135.788 101.737 135.504 101.607 135.191C101.477 134.878 101.411 134.543 101.411 134.204Z" fill="#D8F9DA"/>
<path d="M94.1016 33.5156H58.0078C57.3241 33.5156 56.6683 33.7872 56.1848 34.2707C55.7013 34.7542 55.4297 35.41 55.4297 36.0938C55.4297 36.7775 55.7013 37.4333 56.1848 37.9168C56.6683 38.4003 57.3241 38.6719 58.0078 38.6719H94.1016C94.7853 38.6719 95.4411 38.4003 95.9246 37.9168C96.4081 37.4333 96.6797 36.7775 96.6797 36.0938C96.6797 35.41 96.4081 34.7542 95.9246 34.2707C95.4411 33.7872 94.7853 33.5156 94.1016 33.5156Z" fill="#1BA548"/>
<path d="M43.2952 31.6929L29.6492 45.3389L23.7376 39.4272C23.2527 38.951 22.5993 38.6856 21.9197 38.6887C21.24 38.6917 20.5891 38.9631 20.1085 39.4437C19.628 39.9242 19.3566 40.5752 19.3535 41.2548C19.3505 41.9344 19.6159 42.5878 20.0921 43.0727L27.8265 50.8071C28.0658 51.0465 28.35 51.2365 28.6627 51.3661C28.9755 51.4957 29.3107 51.5624 29.6493 51.5624C29.9879 51.5624 30.3231 51.4957 30.6359 51.3661C30.9486 51.2365 31.2328 51.0465 31.4721 50.8071L46.9409 35.3383C47.4193 34.8538 47.6866 34.1998 47.6844 33.5189C47.6823 32.838 47.4108 32.1857 46.9294 31.7042C46.4479 31.2228 45.7955 30.9514 45.1146 30.9492C44.4338 30.9471 43.7797 31.2144 43.2952 31.6929Z" fill="#1BA548"/>
<path d="M43.2952 62.6304L29.6492 76.2764L23.7376 70.3647C23.2527 69.8885 22.5993 69.6231 21.9197 69.6262C21.24 69.6292 20.5891 69.9006 20.1085 70.3812C19.628 70.8617 19.3566 71.5127 19.3535 72.1923C19.3505 72.8719 19.6159 73.5253 20.0921 74.0102L27.8265 81.7446C28.0658 81.984 28.35 82.174 28.6627 82.3036C28.9755 82.4332 29.3107 82.4999 29.6493 82.4999C29.9879 82.4999 30.3231 82.4332 30.6359 82.3036C30.9486 82.174 31.2328 81.984 31.4721 81.7446L46.9409 66.2758C47.4193 65.7913 47.6866 65.1373 47.6844 64.4564C47.6823 63.7755 47.4108 63.1232 46.9294 62.6417C46.4479 62.1603 45.7955 61.8889 45.1146 61.8867C44.4338 61.8846 43.7797 62.1519 43.2952 62.6304Z" fill="#1BA548"/>
<path d="M43.2952 93.5679L29.6492 107.214L23.7376 101.302C23.2527 100.826 22.5993 100.561 21.9197 100.564C21.24 100.567 20.5891 100.838 20.1085 101.319C19.628 101.799 19.3566 102.45 19.3535 103.13C19.3505 103.809 19.6159 104.463 20.0921 104.948L27.8265 112.682C28.0658 112.922 28.35 113.111 28.6627 113.241C28.9755 113.371 29.3107 113.437 29.6493 113.437C29.9879 113.437 30.3231 113.371 30.6359 113.241C30.9486 113.111 31.2328 112.922 31.4721 112.682L46.9409 97.2133C47.4193 96.7288 47.6866 96.0748 47.6844 95.3939C47.6823 94.713 47.4108 94.0607 46.9294 93.5792C46.4479 93.0978 45.7955 92.8264 45.1146 92.8242C44.4338 92.8221 43.7797 93.0894 43.2952 93.5679Z" fill="#1BA548"/>
<path d="M101.836 10.3125H81.2109C81.2087 8.2619 80.3931 6.29593 78.9431 4.84594C77.4931 3.39595 75.5272 2.58036 73.4766 2.57812H42.5391C40.4885 2.58036 38.5225 3.39595 37.0725 4.84594C35.6225 6.29593 34.8069 8.2619 34.8047 10.3125H14.1797C12.1291 10.3147 10.1631 11.1303 8.71313 12.5803C7.26314 14.0303 6.44755 15.9963 6.44531 18.0469V123.75C6.44755 125.801 7.26314 127.767 8.71313 129.217C10.1631 130.667 12.1291 131.482 14.1797 131.484H101.836C103.887 131.482 105.853 130.667 107.302 129.217C108.752 127.767 109.568 125.801 109.57 123.75V18.0469C109.568 15.9963 108.752 14.0303 107.302 12.5803C105.853 11.1303 103.887 10.3147 101.836 10.3125ZM39.9609 10.3125C39.9616 9.62895 40.2335 8.97359 40.7168 8.49024C41.2001 8.0069 41.8555 7.73506 42.5391 7.73438H73.4766C74.1601 7.73506 74.8155 8.0069 75.2988 8.49024C75.7822 8.97359 76.054 9.62895 76.0547 10.3125V15.4688C76.054 16.1523 75.7822 16.8077 75.2988 17.291C74.8155 17.7744 74.1601 18.0462 73.4766 18.0469H42.5391C41.8555 18.0462 41.2001 17.7744 40.7168 17.291C40.2335 16.8077 39.9616 16.1523 39.9609 15.4688V10.3125ZM104.414 123.75C104.413 124.434 104.142 125.089 103.658 125.572C103.175 126.056 102.519 126.327 101.836 126.328H14.1797C13.4961 126.327 12.8408 126.056 12.3574 125.572C11.8741 125.089 11.6022 124.434 11.6016 123.75V18.0469C11.6022 17.3633 11.8741 16.708 12.3574 16.2246C12.8408 15.7413 13.4961 15.4694 14.1797 15.4688H34.8047C34.8069 17.5193 35.6225 19.4853 37.0725 20.9353C38.5225 22.3853 40.4885 23.2009 42.5391 23.2031H73.4766C75.5272 23.2009 77.4931 22.3853 78.9431 20.9353C80.3931 19.4853 81.2087 17.5193 81.2109 15.4688H101.836C102.519 15.4694 103.175 15.7413 103.658 16.2246C104.142 16.708 104.413 17.3633 104.414 18.0469V123.75Z" fill="#1BA548"/>
</g>
</g>
<defs>
<clipPath id="clip0_0_1">
<rect width="1200" height="3835" fill="white" transform="translate(-864 -640)"/>
</clipPath>
<clipPath id="clip1_0_1">
<rect width="165" height="165" fill="white"/>
</clipPath>
</defs>
</svg>
