<svg width="248" height="23" viewBox="0 0 248 23" fill="none" xmlns="http://www.w3.org/2000/svg">
<path d="M225.291 0.204735C226.611 0.204735 227.896 0.191269 229.178 0.218202C229.319 0.218202 229.514 0.414813 229.582 0.565638C231.796 5.46385 234.003 10.3648 236.204 15.2684C236.377 15.6535 236.578 16.0225 236.83 16.5315C237.006 16.176 237.117 15.9632 237.215 15.7451C239.348 10.9348 241.517 6.13269 243.599 1.3036C243.956 0.468679 244.357 0.0646837 245.312 0.175109C246.207 0.232387 247.105 0.23958 248.001 0.196655V21.7431H244.417V7.2531L244.227 7.19654C244.119 7.4147 243.992 7.62747 243.902 7.85371C242.247 12.0822 240.592 16.3107 238.939 20.5392C238.446 21.7942 238.435 21.7942 237.069 21.7808C236.394 21.7808 235.562 21.9747 235.087 21.6542C234.613 21.3337 234.485 20.4961 234.233 19.8766C232.607 15.8564 230.981 11.8344 229.354 7.81062C229.273 7.58869 229.121 7.39943 228.921 7.27196V21.7431H225.291V0.204735Z" fill="white"/>
<path d="M188.486 22.0447C187.527 21.8885 186.158 21.7942 184.87 21.4252C181.387 20.4233 179.319 17.9993 178.424 14.5788C177.655 11.5925 177.839 8.44242 178.95 5.56435C179.853 3.11076 181.615 1.5244 184.1 0.754119C187.003 -0.180442 190.118 -0.247868 193.059 0.560201C196.187 1.40051 198.19 3.40702 199.068 6.48546C199.87 9.21994 199.945 12.1142 199.285 14.8859C198.347 18.7723 195.574 21.2367 191.587 21.7619C190.69 21.8804 189.787 21.9289 188.486 22.0447ZM182.073 10.6278C182.146 11.4358 182.189 12.1602 182.279 12.8713C182.753 16.588 185.331 18.7319 189.085 18.5488C192.609 18.3737 194.615 16.7685 195.298 13.4584C195.676 11.6663 195.638 9.81212 195.187 8.03681C194.593 5.71787 193.2 4.08843 190.763 3.62518C189.784 3.46401 188.786 3.44135 187.8 3.55785C184.889 3.82718 182.943 5.56705 182.338 8.37616C182.176 9.14106 182.154 9.93289 182.073 10.6278Z" fill="white"/>
<path d="M204.11 0.233995C204.351 0.217835 204.549 0.196289 204.747 0.196289C207.937 0.196289 211.13 0.196289 214.321 0.215142C215.089 0.230663 215.855 0.320869 216.606 0.484472C218.918 0.969266 220.384 2.74146 220.596 5.08732C220.853 7.98262 219.531 10.2046 216.153 12.0899C215.961 12.2003 215.757 12.2919 215.427 12.4589L222.271 21.7077C221.967 21.7427 221.805 21.7804 221.642 21.7804C220.374 21.7804 219.105 21.7589 217.847 21.7804C217.671 21.7936 217.495 21.7569 217.339 21.6744C217.183 21.5919 217.054 21.4671 216.966 21.3145C215.017 18.5511 213.057 15.7968 211.087 13.0514C210.575 12.3377 210.68 11.5539 210.716 10.7783C210.716 10.6625 211.027 10.5278 211.214 10.4578C212.331 10.043 213.51 9.75212 214.557 9.21077C215.912 8.51051 216.541 7.29583 216.424 5.7391C216.346 4.68602 215.804 4.01808 214.765 3.80801C214.344 3.72492 213.916 3.68074 213.486 3.67603C211.992 3.65987 210.504 3.67603 209.005 3.67603C208.138 3.67603 208.138 3.67603 208.138 4.5729V20.8458C208.138 21.1313 208.113 21.4168 208.1 21.7346H204.11V0.233995Z" fill="white"/>
<path d="M0.751256 17.4418C2.37763 17.7677 3.86847 18.1448 5.3837 18.3522C7.13205 18.5892 8.9075 18.6781 10.6315 18.1529C11.2355 17.9734 11.7995 17.6809 12.2931 17.291C13.1578 16.5827 13.3773 15.6158 13.0629 14.5411C12.7674 13.5285 12.1223 12.9063 11.0408 12.839C9.95922 12.7717 8.87227 12.777 7.78802 12.7178C6.63707 12.6959 5.48845 12.6059 4.34825 12.4485C1.79484 12.0094 0.295872 10.3504 0.0546273 7.77019C-0.0292388 6.96355 -0.0165002 6.14988 0.0925759 5.34622C0.363638 3.48246 1.44788 2.14927 3.10136 1.26856C4.39212 0.607735 5.80534 0.21636 7.25403 0.118523C10.0975 -0.1591 12.9681 0.0865036 15.722 0.843021C16.2316 0.98846 16.4674 1.19854 16.4322 1.76952C16.378 2.68524 16.4322 3.60904 16.4322 4.66212C15.7328 4.47628 15.0769 4.32546 14.4588 4.12346C11.9192 3.33908 9.21639 3.23318 6.62245 3.81643C5.41623 4.08576 4.37806 4.69175 4.03381 6.02224C3.66788 7.43622 4.52173 8.80711 5.96648 8.99834C6.85557 9.11684 7.77175 9.0522 8.6771 9.11684C10.1381 9.22727 11.6235 9.25151 13.052 9.537C15.6515 10.0541 17.0285 11.7293 17.1342 14.3607C17.1852 15.3275 17.0994 16.2967 16.8794 17.2398C16.2316 19.8523 14.2583 21.0993 11.7889 21.5976C8.34099 22.2925 4.90392 21.9477 1.48854 21.1828C0.905761 21.0509 0.675359 20.7546 0.72415 20.1432C0.791915 19.2571 0.751256 18.3576 0.751256 17.4418Z" fill="white"/>
<path d="M74.9571 0.23198H79.0014C79.0014 1.3093 79.0014 2.32467 79.0014 3.35082C78.9715 6.95446 79.0014 10.5581 78.8658 14.1536C78.7967 15.4071 78.5154 16.6399 78.0337 17.8004C77.2503 19.7342 75.6456 20.8869 73.656 21.4336C70.9407 22.2081 68.0577 22.1837 65.3561 21.3636C62.3988 20.4614 60.4282 17.962 60.3631 14.8997C60.2601 10.1972 60.2764 5.492 60.2466 0.789493C60.2565 0.597256 60.2773 0.405727 60.3089 0.21582H64.196C64.2122 0.498617 64.2393 0.735627 64.2393 0.972638C64.2393 4.86715 64.2393 8.76076 64.2393 12.6535C64.2253 13.1486 64.2397 13.644 64.2827 14.1375C64.6053 16.89 66.2804 18.4468 69.1889 18.5276C70.1584 18.5418 71.1234 18.3934 72.0432 18.0886C73.8214 17.5176 74.7972 16.1763 74.8595 14.3449C74.9625 11.288 74.9354 8.2257 74.9571 5.16611C74.9652 3.54474 74.9571 1.92607 74.9571 0.23198Z" fill="white"/>
<path d="M84.1924 0.269318C88.1905 0.307024 92.1643 0.0942535 96.0811 0.457849C99.3745 0.762192 100.689 3.2104 100.548 6.65244C100.407 10.0945 98.274 12.1683 95.2246 13.3857C94.0644 13.8435 92.8067 14.0482 91.4785 14.3984C91.2833 13.0948 91.1153 11.9744 90.9364 10.7705C91.4222 10.6592 91.9017 10.5226 92.373 10.3611C93.1809 10.0841 93.9627 9.73709 94.7095 9.32419C95.7938 8.65356 96.3359 7.58701 96.4037 6.32386C96.4904 4.79945 95.3682 3.74367 93.6009 3.70597C92.0179 3.67096 90.4322 3.70597 88.8492 3.67904C88.2637 3.66557 88.139 3.88103 88.1417 4.41969C88.158 9.77667 88.1417 15.1309 88.1417 20.4879V21.7538H84.1924V0.269318Z" fill="white"/>
<path d="M41.7442 21.775C40.3889 21.775 39.0797 21.775 37.7732 21.7588C37.6431 21.7588 37.4669 21.5353 37.3991 21.3764C35.0879 16.0059 32.7857 10.631 30.4925 5.25157C30.4003 5.03341 30.2865 4.82603 30.1021 4.44358C29.7362 5.29197 29.4326 5.9626 29.1534 6.64401C27.1584 11.5512 25.1616 16.4656 23.163 21.3871C23.1232 21.4796 23.0627 21.5619 22.9861 21.6276C22.9096 21.6934 22.819 21.7411 22.7211 21.7669C21.4824 21.7965 20.2409 21.783 18.9263 21.783C19.0374 21.4787 19.1106 21.2444 19.1973 21.0262C22.0634 14.2984 24.924 7.5705 27.7791 0.84264C27.977 0.371312 28.1912 0.147768 28.7604 0.180088C29.8202 0.23934 30.8855 0.217794 31.9508 0.180088C32.1038 0.158598 32.2594 0.192851 32.389 0.276518C32.5185 0.360185 32.6132 0.487612 32.6555 0.635255C35.63 7.5337 38.6117 14.4285 41.6006 21.3198C41.6467 21.4518 41.6738 21.5811 41.7442 21.775Z" fill="white"/>
<path d="M174.475 9.10634C174.475 10.2214 174.475 11.2314 174.475 12.2387C174.475 12.7046 174.101 12.6049 173.827 12.6076C171.154 12.6076 168.484 12.6076 165.814 12.6076C164.432 12.6076 164.641 12.4649 164.635 13.8008C164.635 16.187 164.635 18.5733 164.635 20.9596V21.7325H160.767V0.237305H174.933V3.58238H164.749V9.10634H174.475Z" fill="white"/>
<path d="M40.687 3.61222V0.250977H57.135V3.61491H50.9602V21.7327H46.8943V3.61222H40.687Z" fill="white"/>
<path d="M151.399 21.7595H147.418V3.63894H141.208V0.237305H157.645C157.645 1.28231 157.666 2.2896 157.618 3.2942C157.618 3.41271 157.227 3.60662 157.013 3.61201C155.43 3.65241 153.844 3.6551 152.261 3.67126H151.399V21.7595Z" fill="white"/>
<path d="M116.449 21.7132H103.847V0.231445H107.721C107.74 0.560028 107.772 0.864371 107.772 1.16871C107.772 6.61457 107.772 12.0595 107.772 17.5036C107.772 18.3816 107.772 18.3762 108.669 18.3789C111.019 18.3789 113.372 18.4058 115.717 18.3789C116.335 18.3789 116.484 18.6051 116.457 19.1707C116.416 20.003 116.449 20.8352 116.449 21.7132Z" fill="white"/>
<path d="M142.511 21.7485C141.213 21.7485 140.015 21.7701 138.817 21.727C138.689 21.6978 138.569 21.6402 138.467 21.5586C138.365 21.477 138.282 21.3734 138.226 21.2557C135.888 15.826 133.561 10.39 131.246 4.94773C131.195 4.82653 131.127 4.71341 130.991 4.45216C130.804 4.75425 130.633 5.06623 130.479 5.38674C129.395 8.02887 128.31 10.671 127.278 13.3266C127.053 13.9003 126.784 14.1346 126.147 14.0942C125.166 14.0322 124.177 14.0753 123.065 14.0753C123.391 13.3023 123.656 12.664 123.925 12.0311C125.502 8.29281 127.102 4.57875 128.663 0.840446C128.861 0.371811 129.099 0.194054 129.612 0.2156C130.65 0.253306 131.693 0.19944 132.734 0.24792C132.876 0.262969 133.012 0.309521 133.133 0.384122C133.254 0.458723 133.357 0.559457 133.434 0.678848C136.437 7.56113 139.424 14.4506 142.395 21.3472C142.438 21.4469 142.455 21.5465 142.511 21.7485Z" fill="#0CA64B"/>
<path d="M119.788 21.7509C120.65 19.7201 121.436 17.8591 122.249 16.0061C122.3 15.9144 122.37 15.8353 122.455 15.7746C122.541 15.714 122.639 15.6734 122.743 15.6559C123.87 15.6263 124.998 15.6398 126.237 15.6398C126.15 15.9091 126.098 16.1138 126.022 16.305C125.358 17.9506 124.667 19.5882 124.03 21.2418C123.995 21.4034 123.901 21.5462 123.766 21.6419C123.63 21.7377 123.463 21.7794 123.298 21.759C122.171 21.7347 121.049 21.7509 119.788 21.7509Z" fill="#0CA64B"/>
</svg>
