<svg width="213" height="20" viewBox="0 0 213 20" fill="none" xmlns="http://www.w3.org/2000/svg">
<path d="M193.494 0.802488C194.627 0.802488 195.731 0.790655 196.832 0.814321C196.953 0.814321 197.121 0.987083 197.179 1.11961C199.08 5.42367 200.976 9.73009 202.866 14.0389C203.015 14.3773 203.188 14.7015 203.404 15.1488C203.555 14.8364 203.651 14.6495 203.735 14.4578C205.567 10.231 207.429 6.01137 209.217 1.76806C209.525 1.03441 209.869 0.679425 210.689 0.776456C211.457 0.826785 212.228 0.833106 212.998 0.795388V19.7282H209.92V6.99588L209.757 6.94618C209.664 7.13787 209.555 7.32483 209.478 7.52363C208.056 11.2392 206.635 14.9548 205.215 18.6703C204.792 19.7731 204.782 19.7731 203.609 19.7613C203.029 19.7613 202.315 19.9317 201.907 19.6501C201.5 19.3685 201.39 18.6324 201.174 18.0881C199.777 14.5556 198.38 11.0215 196.983 7.48576C196.914 7.29075 196.783 7.12445 196.611 7.01244V19.7282H193.494V0.802488Z" fill="#4B4B4C"/>
<path d="M161.883 19.9937C161.059 19.8564 159.884 19.7736 158.778 19.4493C155.786 18.569 154.01 16.439 153.242 13.4334C152.581 10.8093 152.739 8.04138 153.693 5.51243C154.469 3.35646 155.982 1.96254 158.117 1.28569C160.61 0.464493 163.285 0.405246 165.811 1.11529C168.497 1.85367 170.218 3.61679 170.972 6.32181C171.661 8.72459 171.725 11.2677 171.158 13.7032C170.353 17.1182 167.971 19.2837 164.547 19.7452C163.776 19.8493 163.001 19.8919 161.883 19.9937ZM156.375 9.96164C156.438 10.6716 156.475 11.3082 156.552 11.933C156.96 15.1989 159.174 17.0827 162.398 16.9218C165.424 16.768 167.147 15.3575 167.734 12.4489C168.059 10.8742 168.026 9.24494 167.638 7.68497C167.129 5.64733 165.932 4.21554 163.839 3.80848C162.998 3.66687 162.141 3.64695 161.294 3.74932C158.794 3.98598 157.123 5.5148 156.603 7.98316C156.464 8.65528 156.445 9.35106 156.375 9.96164Z" fill="#4B4B4C"/>
<path d="M175.302 0.828054C175.509 0.813855 175.679 0.794922 175.849 0.794922C178.589 0.794922 181.332 0.794922 184.072 0.811488C184.732 0.825126 185.39 0.90439 186.035 1.04815C188.02 1.47414 189.28 3.03136 189.461 5.09266C189.683 7.63676 188.547 9.5892 185.646 11.2458C185.48 11.3428 185.306 11.4233 185.022 11.57L190.9 19.6969C190.639 19.7277 190.5 19.7608 190.36 19.7608C189.271 19.7608 188.181 19.7419 187.101 19.7608C186.949 19.7725 186.798 19.7402 186.664 19.6677C186.53 19.5952 186.419 19.4855 186.344 19.3514C184.67 16.9233 182.986 14.503 181.295 12.0907C180.855 11.4635 180.945 10.7749 180.976 10.0933C180.976 9.99152 181.243 9.87319 181.404 9.81166C182.363 9.44721 183.376 9.19161 184.275 8.71593C185.439 8.10061 185.979 7.03327 185.879 5.66538C185.811 4.74004 185.345 4.15312 184.454 3.96853C184.092 3.89552 183.724 3.8567 183.355 3.85257C182.072 3.83837 180.794 3.85257 179.507 3.85257C178.762 3.85257 178.762 3.85257 178.762 4.64064V18.9396C178.762 19.1905 178.741 19.4413 178.729 19.7206H175.302V0.828054Z" fill="#4B4B4C"/>
<path d="M0.645225 15.9472C2.04205 16.2335 3.32248 16.5649 4.62386 16.7471C6.12545 16.9553 7.65032 17.0334 9.13096 16.572C9.64978 16.4143 10.1342 16.1572 10.558 15.8146C11.3007 15.1922 11.4893 14.3426 11.2192 13.3983C10.9655 12.5085 10.4114 11.9618 9.48249 11.9027C8.5536 11.8435 7.62005 11.8482 6.68884 11.7962C5.70033 11.7769 4.71382 11.6979 3.73454 11.5595C1.54152 11.1737 0.254113 9.71592 0.0469173 7.44872C-0.0251121 6.73993 -0.0141714 6.02495 0.07951 5.31878C0.312315 3.68109 1.24353 2.50963 2.66364 1.73575C3.77223 1.15508 4.98599 0.81118 6.23021 0.725211C8.67237 0.481264 11.1378 0.697075 13.503 1.36183C13.9407 1.48962 14.1432 1.67422 14.113 2.17594C14.0664 2.98058 14.113 3.79232 14.113 4.71766C13.5123 4.55437 12.949 4.42184 12.4182 4.24434C10.2369 3.55511 7.91561 3.46205 5.68778 3.97455C4.65179 4.21121 3.76015 4.7437 3.46449 5.9128C3.1502 7.15526 3.88354 8.35986 5.12439 8.52789C5.88799 8.63202 6.67487 8.57522 7.45243 8.63202C8.70725 8.72905 9.98302 8.75035 11.2099 9.00121C13.4425 9.45559 14.6251 10.9276 14.7159 13.2398C14.7597 14.0893 14.686 14.9409 14.4971 15.7697C13.9407 18.0653 12.2459 19.161 10.125 19.5988C7.16376 20.2094 4.21179 19.9065 1.27845 19.2344C0.777924 19.1184 0.58004 18.8581 0.621945 18.3209C0.680146 17.5423 0.645225 16.7518 0.645225 15.9472Z" fill="#4B4B4C"/>
<path d="M64.378 0.824746H67.8514C67.8514 1.77139 67.8514 2.66359 67.8514 3.56527C67.8258 6.73177 67.8514 9.89828 67.735 13.0577C67.6757 14.1591 67.434 15.2424 67.0203 16.2621C66.3475 17.9613 64.9693 18.9742 63.2605 19.4546C60.9285 20.1351 58.4524 20.1137 56.132 19.3931C53.5921 18.6003 51.8996 16.4041 51.8438 13.7132C51.7553 9.58116 51.7693 5.44671 51.7437 1.31463C51.7522 1.14571 51.77 0.977418 51.7972 0.810547H55.1356C55.1496 1.05904 55.1729 1.2673 55.1729 1.47556C55.1729 4.89766 55.1729 8.31897 55.1729 11.7395C55.1608 12.1745 55.1732 12.6099 55.2101 13.0435C55.4872 15.4622 56.9259 16.83 59.4239 16.901C60.2566 16.9136 61.0853 16.7832 61.8753 16.5153C63.4025 16.0136 64.2406 14.835 64.2942 13.2257C64.3826 10.5396 64.3593 7.84881 64.378 5.16035C64.385 3.73566 64.378 2.31334 64.378 0.824746Z" fill="#4B4B4C"/>
<path d="M72.3096 0.858682C75.7434 0.891814 79.1564 0.704853 82.5204 1.02434C85.349 1.29177 86.4781 3.44301 86.357 6.46752C86.2359 9.49203 84.4038 11.3143 81.7847 12.384C80.7883 12.7863 79.7081 12.9662 78.5674 13.2739C78.3997 12.1284 78.2554 11.1439 78.1018 10.086C78.519 9.98827 78.9308 9.8682 79.3356 9.72633C80.0295 9.48289 80.701 9.178 81.3424 8.81519C82.2736 8.2259 82.7392 7.28873 82.7974 6.17879C82.8719 4.8393 81.9081 3.91159 80.3902 3.87846C79.0306 3.8477 77.6687 3.87846 76.3092 3.8548C75.8063 3.84296 75.6992 4.03229 75.7015 4.50561C75.7155 9.21277 75.7015 13.9176 75.7015 18.6247V19.737H72.3096V0.858682Z" fill="#4B4B4C"/>
<path d="M35.8524 19.7553C34.6884 19.7553 33.5639 19.7553 32.4418 19.7411C32.33 19.7411 32.1787 19.5447 32.1205 19.405C30.1355 14.686 28.1582 9.96311 26.1887 5.23622C26.1095 5.04452 26.0117 4.8623 25.8534 4.52624C25.5391 5.27172 25.2784 5.861 25.0386 6.45975C23.3252 10.7717 21.6102 15.0899 19.8936 19.4145C19.8594 19.4958 19.8075 19.568 19.7417 19.6259C19.676 19.6837 19.5982 19.7255 19.5141 19.7482C18.4502 19.7742 17.384 19.7624 16.2549 19.7624C16.3503 19.495 16.4132 19.2891 16.4877 19.0974C18.9492 13.1856 21.4061 7.27386 23.8583 1.3621C24.0282 0.947943 24.2121 0.751515 24.701 0.779914C25.6113 0.83198 26.5262 0.813047 27.4411 0.779914C27.5725 0.761031 27.7062 0.791129 27.8175 0.864647C27.9287 0.938166 28.0101 1.05014 28.0464 1.17987C30.6011 7.24152 33.1619 13.3 35.729 19.3553C35.7686 19.4713 35.7918 19.5849 35.8524 19.7553Z" fill="#4B4B4C"/>
<path d="M149.85 8.62329C149.85 9.60306 149.85 10.4905 149.85 11.3756C149.85 11.7851 149.529 11.6975 149.294 11.6999C146.998 11.6999 144.705 11.6999 142.412 11.6999C141.225 11.6999 141.404 11.5744 141.399 12.7483C141.399 14.8451 141.399 16.9419 141.399 19.0387V19.7179H138.077V0.830078H150.244V3.76939H141.497V8.62329H149.85Z" fill="#4B4B4C"/>
<path d="M34.9443 3.79531V0.841797H49.0709V3.79768H43.7676V19.7178H40.2756V3.79531H34.9443Z" fill="#4B4B4C"/>
<path d="M130.031 19.7416H126.611V3.81909H121.278V0.830078H135.395C135.395 1.74832 135.414 2.63343 135.372 3.51617C135.372 3.6203 135.037 3.79069 134.853 3.79543C133.493 3.83092 132.131 3.83329 130.772 3.84749H130.031V19.7416Z" fill="#4B4B4C"/>
<path d="M100.014 19.7012H89.1904V0.825195H92.5172C92.5335 1.11392 92.5614 1.38135 92.5614 1.64877C92.5614 6.43404 92.5614 11.2185 92.5614 16.0022C92.5614 16.7737 92.5614 16.769 93.332 16.7713C95.3504 16.7713 97.3712 16.795 99.3849 16.7713C99.9157 16.7713 100.044 16.9701 100.021 17.4671C99.9856 18.1984 100.014 18.9297 100.014 19.7012Z" fill="#4B4B4C"/>
<path d="M122.398 19.732C121.283 19.732 120.254 19.751 119.225 19.7131C119.115 19.6875 119.012 19.6369 118.924 19.5651C118.836 19.4934 118.765 19.4024 118.717 19.299C116.709 14.5279 114.71 9.75131 112.722 4.96921C112.678 4.86271 112.62 4.76331 112.503 4.53375C112.342 4.79919 112.195 5.07333 112.063 5.35496C111.132 7.67659 110.201 9.99823 109.314 12.3317C109.121 12.8358 108.89 13.0417 108.343 13.0062C107.501 12.9517 106.651 12.9896 105.696 12.9896C105.976 12.3104 106.204 11.7495 106.434 11.1934C107.789 7.90852 109.163 4.64498 110.504 1.36014C110.674 0.948356 110.879 0.79216 111.319 0.811093C112.21 0.844225 113.106 0.796893 114 0.839492C114.122 0.852716 114.239 0.893622 114.343 0.959173C114.447 1.02472 114.535 1.11324 114.601 1.21815C117.181 7.26559 119.746 13.3194 122.298 19.3794C122.335 19.467 122.349 19.5546 122.398 19.732Z" fill="#0CA64B"/>
<path d="M102.882 19.7358C103.622 17.9514 104.297 16.316 104.996 14.6878C105.039 14.6073 105.099 14.5378 105.173 14.4845C105.246 14.4312 105.33 14.3955 105.419 14.3802C106.388 14.3541 107.356 14.366 108.42 14.366C108.346 14.6026 108.302 14.7825 108.236 14.9505C107.666 16.3965 107.072 17.8354 106.525 19.2885C106.495 19.4305 106.414 19.5559 106.298 19.6401C106.182 19.7242 106.038 19.7609 105.897 19.7429C104.928 19.7216 103.964 19.7358 102.882 19.7358Z" fill="#0CA64B"/>
</svg>
